<svg version="1.1" xmlns="http://www.w3.org/2000/svg" viewBox="0 0 789.9999999999999 428" width="789.9999999999999" height="428">
  <!-- svg-source:excalidraw -->
  <!-- payload-type:application/vnd.excalidraw+json --><!-- payload-version:2 --><!-- payload-start -->eyJ2ZXJzaW9uIjoiMSIsImVuY29kaW5nIjoiYnN0cmluZyIsImNvbXByZXNzZWQiOnRydWUsImVuY29kZWQiOiJ4nO1da1NcdTAwMWJLkv1+f1x1MDAwNeH5slx1MDAxYjH0rffjRmxs8DJgXHUwMDFijME8dyZcYiE1SCAkoVx1MDAwN1x1MDAwZk/c/74n21x1MDAxOHW11OpcdTAwMDYkRr5j5LCxulWqrso8ebIqM+tfvy0svOs/dOJ3fyy8i++rlWaj1q3cvfs7vX9cdTAwMWJ3e412XHUwMDBil0Ty/1570K0md9b7/U7vj99/v650r+J+p1mpxtFtozeoNHv9Qa3Rjqrt699cdTAwMWL9+Lr3v/T3duU6/p9O+7rW70bDL1mMa41+u/v9u+JmfFx1MDAxZLf6PbT+f/j/wsK/kr9TvevG1X6lddGMk1x1MDAwZiSXhlx1MDAxZDQy++Z2u5X01Vx1MDAxYuGVNYo/3dDoreLb+nFcclfP0eN4eIXeesekPmw0j8R266RzseFF/eCytTb80vNGs7nXf2gmneq18SzDa71+t31cdTAwMTVcdTAwMWY2av36j1FLvZ/3qW57cFFvxT16+GE3251KtdF/oPdcdTAwMTh7evf7XGL8sTB851x1MDAxZf+T1kVGpl5PV+nzXkbcpV4+06+Vdlx1MDAxM9OAfv2Nx/RcdTAwMWH27KxSvbpA91q1p3v63Uqr16l0MVnD++5cdTAwMWWf2Nphv+px46Lex5uKueFcdTAwMTfGybBcdTAwMWKjpbfGXHJ7Qt/S2awl8//P4Vh3ITmb9InWoNlMXHUwMDBmWKv2OGA/5GQoKfLxnT+Hj0H3r2UlLC1lgaT14/vhs6VcdTAwMDTD7+3e2N16ha+936ttL4ujr5XB9run+/58/G3Y/UGnVvkuZ9wq5jnnwls5XHUwMDE0i2ajdZV9tma7ejVcdTAwMTTN31JcdTAwMGYyolx1MDAxMUE/U8ogfZ4ycCNcdTAwMTi3VpdXhvHPPN/K4OQkZXBvpVxmXFzZXGLtO1x0/LGQd2ZGdUPorGpwabVmlvPXq0ZwYURcdTAwMDemKabDXrVb/b3GN5pcdTAwMTTBgnffV65cdTAwMWLNh2BSXHUwMDEz+cUoXHUwMDFlNLp9mI6FrUq13milRpxuWGo2Lkio3zXj81Da+1xyWJKny/12Z3i1ii+soKnuZlx1MDAxOURvd1x1MDAxYlx1MDAxN41Wpfm1qD9cdTAwMTiIeOPH1PEoNXlnlV5MV+l9N1FpJ5ox4UX23SfVVdoza4Utr7vyevv25v768njz+qi59G1Zdjvfdudbdy3zUVp1h60kn+ekUenXzJRXOlx1MDAxZmGwn15ujPKieyGWXGZJyJMyO+O4Utr+VIbufrvyUd1+Or263D9a+tw4aV+d9PafaeiEXHUwMDE0ataGTkiepy7eWqW806WVZfwzz7eycDVJWYR4K2VcdTAwMTHQWu6J0DFjXHUwMDE0MylgnGTpnHRKMDZcdTAwMDVcdTAwMTL4XG5L90w5fZ2l2+m2r+N+PVx1MDAxZfRcdTAwMTaeTNT0zV1cdTAwMDHuZ83d5E5Nw+bFzWaj01x1MDAxYmvxuNA6+/ZcdTAwMGZcdTAwMWTWTlx1MDAxOC2EXHUwMDFhXG5IkVx1MDAxMpvj3uV5W/v+0a6wu5/qg70vt3s5Slxc7bZ7vcV6pV+t56lyVmPKqPJQ/Z+jyl7zSDtccjdVW+6NXHUwMDFmPnLyecUjp500zillvM3X5JirM1GbqMkj9zzxVaEjrbV3XHUwMDFlX4WfcXx1wj2PWi2VcEKDrYzV6qFccuttvY8/XHUwMDFkt9zR0ekyd0v7n5a/LNV/2Jg3Un4pvJRpSX+NkZpI7DzPX6CQTlx1MDAwMzNZeV73od855lvnXHUwMDFm2529vqx+7txsdG9cdTAwMWEvMVVvKN/WR9p7JThTwjKrXHUwMDAy+Vx1MDAwNlxiR15I2FxyYzxoVNaEPk++z5OfUfk2LmJgXHUwMDA0XHUwMDFlKqQwXHUwMDFmTo5cdTAwMTNv9DLRMKWYYNaNXHUwMDFhLY7LTrlcdTAwMWNG91x1MDAxN5bvZuBcbqVcdTAwMTCcc5cr20Zz8Fx1MDAxMi1Ly/aDYFx1MDAwZp+qfmfrPv6qdXWz4szh3bzJtoy4wehqaz2DrHBcdTAwMTHKuteR0VxuSs3AcKzJyLrWXHUwMDExZ/S2t8pcdTAwMGKmZyPs0kbeOuZcdTAwMTRmwDkhxzAyLiPGneeOQStccv5RWWFcdTAwMTdMwPxKb8YvRsxC2Ee9XHUwMDFj8fjOXHUwMDA0L2eaOpCajUq3v9xo1Vx1MDAxYa2L7EfiVi3nSrPS66+0r69cdTAwMWJ9dGOn3Wj1s3ck7S51u+27elxcXHUwMDE5XHUwMDE5XHUwMDBitJx7rUPNhSM//G1hiLjJf55+/+ffx99cdTAwMWRBbmGsMfnEw6XxMv35RVx1MDAxMVx02CQlrdRcdTAwMDI6rIvag7ssXHTZnZaaSTZcdTAwMTS4pDXOI1x0auOdM1BcdTAwMWHDZVFz3EW4UTkulLFcboYh7N2o7Fx1MDAxNjUoXHUwMDAx7UxbyT1cdTAwMWVa48mD9nwkXGLXNYO6XGIoZmFreeqVtMbgljkwV47BUN447lx1MDAwYmcjZ+5+S//7XFxkXHUwMDA2uORcIrO1zFhuWHluvX/mVvtifbC1udFz7budk5XBzv28IXOGdVx1MDAwMImZ1Vx1MDAxZcxcdTAwMDNwizlcdJGYg5NcdTAwMThhQEjgh/pcdTAwMTRcdTAwMWaYJlx1MDAxMGtcdTAwMTlBpKRcdTAwMDB159rwsUhsWYT3tVx1MDAxNlx1MDAwNrRapC3GXHUwMDBm1mGYNlx1MDAwZVo17OMvIF74a1x1MDAwMDHQwjJcdTAwMDfnTlx1MDAwMWlcdTAwMTlAiIXQxFwiXHUwMDBmvuBcZkSIIMfqQiheXHUwMDA0P+HkPEuLT+ohXGIkXHUwMDE3gYOKw6+GTFx0IL9cdTAwMTeFYLdoXCJyUJRnzHprmLRBg8BiK1x1MDAwNNRMXG7MtIeUXHUwMDE3NqhAgUC0Lf1trbNcdTAwMTlwh7FcdTAwMTC0msRhfZxVnFx1MDAxNzUoXCKYXHUwMDAwaFx1MDAxMEyMXHUwMDAwq/LhXGI6qDlnlnFhtLZMisL+YYw0gbs1UsFiiHBcdTAwMDRhm+CtcM+UhWLDXHUwMDFiKDEhmmBGQlx1MDAwZqxcdTAwMDDu2nBcdTAwMDQlj5iBemi65NBZW0ZoXGaNtUSLXHUwMDAwQpuZZOVcInJjgGuw3TCSxV2kxUJGXHUwMDBm6+DbMNDasIua+IAm54lcdTAwMDGoVLFcdTAwMDFnXHUwMDExXHUwMDAz8ydzqoTSQmN+TNhcIo/QNzyxd4LRvUUtmkg7g2n0JDPKXGZ3Ob8/scJcdTAwMThaXGadUsqSUS5qzkZcdTAwMGVcdTAwMWNdoDmMvOU6bE6CXHUwMDExeGaUXHUwMDAyXHUwMDFlSyZkoVx1MDAwNecgVFI7XHUwMDBiNkCyiFlcdTAwMGW7x8FnoOJGM6ZcdTAwMTWMb1x0PoUnXHUwMDAxw4GOXGKwiZBhKFx1MDAxM9GXwWg55yE2Ra25XGIyJ4ExmESjnczOLShcdTAwMTnHsGE6NPeFz+pcIlx1MDAwN90kXHIhxLImM7E68uRcdTAwMWFcdTAwMDFcciSknVx1MDAxN86E4FA3klx1MDAwMaYwb1x1MDAwZcNcdTAwMTO0Zzzaw1jA/nlcZqArXHUwMDFjOuinXCIkclx1MDAwNshinFx1MDAwZmfW8MjAucfcwzs1tOxQ2Fx1MDAxZbFcYkZWjFny9nzmeU1cdTAwMDQoXHUwMDAzw9DgfIDB4vZM5DyzgoRcdTAwMWVcdTAwMDDMsu1BdYh148sgJ7JYkjF+gnRccqJMmCmH6ydJe1x1MDAxMGWoIeCRXHUwMDE5sFx1MDAxZF1MldGeguRjPsC8XHUwMDAx7aHogUhLePW4XGJTgFx1MDAxZVx1MDAxNpojXHUwMDAxrq5cZo04zIdcdTAwMDSmu6woc+vRreRcdTAwMDaYpOJcdTAwMDYt+lx1MDAwN/dcdTAwMWF0iVBdZVRcclx1MDAxM6xcdTAwMWM8XHUwMDExmlx1MDAxMcaZKO6hZFx1MDAxMSRcdTAwMGbizFxyPuV1qFx1MDAxZUZGXHUwMDEyPlx1MDAwNlxiJMFcdTAwMGImrLB/XHUwMDBl/Fx1MDAxZvIvXHUwMDE1PFx1MDAxZUBVRt1cZotcdTAwMDDdmFxuj6eFlSvRXHUwMDFj3Fx1MDAxNlx1MDAwZZSUsERaZpRcdTAwMTejXHUwMDBicuAkkM96Xmzc8LBAO4VcdTAwMDdcdTAwMDb5ZW64hZY0RzFcdTAwMGLomFRcdTAwMTjhhGxcdTAwMTS7QkBKuH2clu5gbjJgIGVEIOWJhlx1MDAwMFx1MDAxNGwxOVx1MDAwMFJi2lx1MDAxNFx1MDAxMVx1MDAxM1hyp8P+XHRcdTAwMWRhVOGmabK+hD6F7ZE6wYFcdTAwMDTwXG5YXHUwMDBlKElozFWkJGlccpxNJWFSi1x1MDAwN1x1MDAxMNiLMZKwklZcdTAwMDCgZZZtXHUwMDE4SFx1MDAwYpxTRiZcdTAwMWagUNhcdTAwMWV6YJ2Au1xic1x0eVx1MDAwZefXgjrAOceIMCFgWEq5plx1MDAxOHGBXHUwMDE5QVx1MDAwNyGHmea8IStcdTAwMDDiXCJcYlx1MDAxZVx1MDAwYoVZYcC98rhcdTAwMWIyiC6E01x1MDAwYqpGrlx1MDAxNYiBXHUwMDA0/fJcdTAwMTjhwvYsuJ9cdTAwMTFkuiRcdTAwMDEmXHUwMDFimVx1MDAwZdA06fFcdTAwMDe6hldhe1x1MDAwMFNJbFx1MDAwMFaQXHUwMDExV8v49VA/2rDAXHJcdNRcdTAwMTY2J1wijJpcdTAwMDNcdTAwMDFySkkxXCItkVx1MDAwMTJbYiFcdTAwMDIvXlxmViQtxpClJHebXHUwMDAxZDLsXHUwMDFlVMYzXHUwMDA3IFx1MDAxNZBQ3FZMrCRcclx1MDAxZJ5cdTAwMTUoXHUwMDAytDIu6FwiXFxJx4nJXHUwMDAxXHUwMDE0KGDEXHUwMDE1s11QXHUwMDEzkFx1MDAxMkJLcFx0XHUwMDA10bCZLoKnQdskx2w5XHUwMDA1oS/s4mtWMybuo/D8XHUwMDFkf/5cdTAwMWTyPS+/pLFxv7O02Jf7e1x1MDAxZldNfPvh8MvN+3U333v+QKhcdMFtXHUwMDE0kVx1MDAwMiFcdTAwMWa+cpc0Xr3lXHUwMDBmvVx1MDAxM+lcdTAwMDCZMatcdTAwMWE8iKCxI3spXHUwMDFlTNhcdTAwMGJjxi9qzGtwTO1iZ/Vu5dP2+tX96eFGU5zuXFy5zVRwzN/HN/v9w/3mh+qFqVx1MDAxZn5s79Y2XHUwMDBl7E37YaW+XHUwMDFifsuP76/Q6sOzgm58Qlx1MDAwMZ6xxDJRXHUwMDBm84JuuM2PUdPkQlx1MDAwMJJsaVx1MDAxNVx1MDAxYz+ac62C8Fx1MDAxOSNOu9xe0Fx1MDAwMrlcdTAwMTOhXG5aXHUwMDEx2bTc69npINNcdTAwMTFRXHUwMDFhOG9KaFCwMUqoWVbrvkd3gndOISbtxVuTtM6eXG5ImnXcTatdi1x1MDAxN+L7Trvbj7tcdTAwMGK0XHUwMDFkz9g/Wv/Ve+j14+vaQqPV61eazf/OXHTFqeKB0iExI8E4141aLW2vMvE4XHUwMDA1ZiZcdTAwMWKP8+zOllxu0VHy5VZXsNyIclxc4oLTjnpplV+70Dv31Zh3j/rHK6udVr9Vv+rPt8pbJWlccuLpNVx1MDAxY+FHlZ+ZjkNZR5VaUiTD8DUm7lx1MDAxNM601aDF46Nw5ta0ri43+mpt/VhsnfBue3Nzff929VxyTOvEdlx1MDAxYutcdTAwMTdcdTAwMWb7XHUwMDAzdXFcXG3GzeMztahuxMHUTLbW6cifmcXJqjz95Yr2eJl6hsVcdTAwMWU7SfOtvslcdTAwMDZcdTAwMWJcdTAwMDXQJ+tBPkOarYtSuq20mZk2W1x1MDAxMyVrXGbM0UY4d25Ut8fEyVqQZE7w859jsHvVbqVDu3qzschcdTAwMDUmKGuRR3sz46hYOVxcZlx1MDAxOVFYJiBcbl6y8qHtt7Wr88Zg6/xop1HZXFxaXVZVNei8RGNfsnP/Mo31XFxHXnHyXHUwMDBlwS6YXG5ccq6SXCKidX3GjIM6M5vp11BhWfIzeee+XHUwMDFh11StMqqsjsK4LLhcciBa0qbcXHUwMDE4ZWW0eEhOLHi4XHUwMDA3uIzu3DuKJNSuKFx1MDAxY3b50/bD53plqXJhu0fdu5v7wdZqPINwwb+IpctcdTAwMGJ5SeeajsTZSiHlcyzd+eWHgTrZWm21zcne/a446H3bXHUwMDEz8643sDBGeGeVdVx1MDAxMEhcdTAwMWLojdQyUlx1MDAwMlx1MDAwZbxmXlx1MDAxOamcylWcrFI8S3GSXHIxp6w1llx1MDAwMa7GXHUwMDA02nq40LSBTeGTjPYws3qDPkqtZGHk4VvpTZFpfFG25F8/soVL6TSjXHJcdTAwMDKmOK1vp1x1MDAxYnA+klx1MDAxNP5cdTAwMDFppc2P4sBcdTAwMTZcYpbj4E+UXHUwMDA1qfApk2lNgd85xmi1n4vCfVx1MDAxN7SmLG39MyksUDzcaGK0X+84TbBi1vDiXHUwMDFk+1etek9cIlx1MDAwM5Jl3/2Baei4XHUwMDE3zypucHO4+6DvNldcdTAwMDY3fP302pzE/Y2On39MXHUwMDEztL2jpPaUXHUwMDBmXHUwMDE0YppcdTAwMDJcdTAwMTegTVs4MoL25PLD+MqQgXNzbs/tjMhcdTAwMDAlzXBcdTAwMDBbUe7Az1xiai8y19zmOqYwXHUwMDFi3IHmlk9cdTAwMWToL548mObF5Xu3f7TP19ZOr5fFm1x1MDAwNai+XFy0tYOoXHUwMDE48FxcZWxcdTAwMTigSuZaO2OUY8LoVFjCVGkuXHUwMDA1KzPaxobqWNqj5GPyvjx8XHUwMDFjY9BdJZVcblx1MDAwMjl/8FxcoTxcdTAwMWNszYtcIlR/Rtn+XHUwMDBmMti5skA/I1LwTCOXXHUwMDBiXHUwMDAzJtfCXHUwMDE5kew9+/IwcM9bg8srdlk7WG/V9+XK7UrXLM03XGbgXHUwMDBlmYTYauVsXCKeIzjANG32UtSpd2Y2/i6FXCIwmCj0hnK6hkG0XHUwMDAxbXewcVpcbsp/8nqEtlNQkbe/ePvPXHUwMDBlXHUwMDAzOZJAPyMy8ExcdTAwMTCYvNOkJ9QuXHUwMDAyLFx1MDAxOedFebJ7sVuTNfFhrdWR96bWqbDWmfs650vVXHUwMDE0V5GOmlxikIA7XHUwMDFlLlXnU4KZbDyZcbvJTvN0RPtPsdO0IVx1MDAwN/tcdTAwMDP57etlb/3yuv3l3t/tLy+W3Vx1MDAxMVrd2zlevTC8c7h4edlg7Vx1MDAwM/3l7rzcOtnEdmO9frG2Xq/euMWNtcPa6u1GqzKt9TfBKGR25jtN6WXprP46SaKSzrsujM9cdTAwMWE7S/Otv7DVzlkpLcUzS6cy+mveTH+5jIz1zia0wjg7Ju9sTHBcYiRFW+v4vzU4xHqu36782F181ou7kNaF3//R6sY3g7iHLlx1MDAwNrdNbeOpwFwiZTeeUl1bXHUwMDE47dnM4z4maDM4nqfUyfK7UIOvR7ftz83m8vrVwftBVTX36tvHc67MXHUwMDEyXHUwMDBleKDAwuog/HJ2wV2gXWEo51x1MDAxOK98jDlmVH/JTmWv+FxyzfFi+9gtNv3Jh9tNudz+srWzd8xvyppNfcn2rpZcdTAwMGa2Vj/Wv3z6uNRcdTAwMTh8vDy7mJLZpGxxn1pcdTAwMTCZkdlUqS3MjKI5R3mNVpbftlx1MDAxYT+Y861oWkdcdTAwMTZcZoUrjDhEXYZK59hbKV2S7Vx1MDAwMFx1MDAwZltcdTAwMTjLXHUwMDFjpVx1MDAwMJQymo56xbRcdTAwMTjv9L5RsVx1MDAxN2DEXHUwMDFi1uzsXGaLhv2jhd+6jWqPYlx1MDAxNdGLXHUwMDE5mc5cdTAwMDL7kTWdqVx1MDAwZeZ1b1x1MDAxYfbzO6KMUWmdXHUwMDFiJS015soxWT5icnJo23xqNKX1pYpcdTAwMGZmgqSNyYmnXHUwMDFj0WhveVW8XFyjheBhXHUwMDE1xDFcdTAwMWI3KixcdCzUaFx1MDAxNIdlgupCsZmY1ddcdTAwMTVW8IJyx1+i+JllrFTHXHUwMDFlq7GXXHSWSqCiOqBe0n4vJeAnXHUwMDE5XHUwMDAw8DZVkEn07qLSIb2IWNpcdTAwMDF6ykZcdTAwMWQ+fLCCltepyTHVYafIoaFcdTAwMWM/XHUwMDA191x1MDAxMzOpx/TJpe2LXHUwMDFk7dOU1+6ysDHd5Tsvclx1MDAxMm+Sq6PSXthgvlx1MDAxMiWXOVx1MDAwYpmqTyWI/Zb+99kgavLD4JxcdTAwMDAvc8yVR9HJPHEuUdQxXHUwMDFiRnqHKGpFpMple71cdTAwMTJFpVx1MDAwZrsxJtFE5lx03XCHUEpBuZ0zSfd6JYZKk8pcdTAwMWOdyVZAXHUwMDFlkE2mNSGQSSdcZpBKciqGYKxKrcs/XCKZXG7QdVh74SdFsmfhjrOFIT/chkmLOlMpISvD08Ixnu/fSSE9jJMvv5AyOUxzPnGM+2BcIsPytlxuV01OXHUwMDFk9VxmkJ0zVy3Y35zs4DGqXHUwMDFmkFp/XHUwMDFkXHUwMDEzgZ9cdTAwMGZ2T9W4vCeOI+aRXHJSkNJcXLBBSkRXknZcYlx1MDAxZJDKSpWu//NcYldUXHUwMDE0NjXWbFx1MDAxNK5KYejkXHUwMDAw91SfeMS0Ylx1MDAxNNQnPX7StVx1MDAxMVx1MDAxZXvEI6mSinGaXG5xOafMSJd+Jlx1MDAwNNXB7SOSXYiXueqSXFxcci+qdOWbUng5cfHZitytYGVcdTAwMDTTVKuxNGZ+OTk6rNi7xsb7s0a79vXqypiNOY9cclNSRc4xXHUwMDBmedVcXCubWVx1MDAxNONcdTAwMDa20cCxMaBcdTAwMDSKqlxc5IJmiaCQgq1gi55IJ7VcdTAwMDWDo5Jxo6BpTaSlZVx1MDAxMle9tWNKXHUwMDE4UkUmna5jlVx1MDAxM1x1MDAxONJcXPxcIo+2zjZubj6s+3XR2F2sNypvnFxi8Ypcct6Rjo5uxFxuxvjUsvTzQqo0z0/5s/C6XHJcdTAwMWO/8kvK8TKLq6v84rPc6lxuftXsnJ3snc27+sjIMS2VUFxmSJGJXHUwMDFh5nCddLIowKyz3LP8XGbe12uPi1x1MDAxYyiOXHUwMDE0VCpQKTkmXHUwMDFkYmRJWVx1MDAxOCtA9lVRpPD0tGXqRMQ5O2OX6ueMrsqXh8zHS5nQiXlcdTAwMDO5XHUwMDEwYIDEltbnSiPA2tXqTm/l6/3Xw0784fbs+MB37MZbIcBQPZ6HXHUwMDAwdJaU85bqnGkmwp1cXG5MXHUwMDA0XHUwMDE2qLhRsJ/kTr9cdTAwMDZcdTAwMDH+dl7R8CZHtV9HhPaawv5H1X7cxafS68pIq1x1MDAxNZ9cdTAwMTd7OU1Vf7FE2/zoQFx0sNTWPqP608fWp5PjquKrXHUwMDA3izuHa59X69f10/dzLtKKqj9xY5mXks1cXKTPXHUwMDE409NcdTAwMTNpXHUwMDBi/udNuj7XL4lWMndhXGJEm1x1MDAxMp+fk7BcdTAwMWFv7ffiXcmbn1x1MDAxZjaF4/6w8kFcdTAwMGbmXFyiXHKDx61cdTAwMTmVXCL0Ujk7XCLR2jMu4VAwKrWcX5qhjEQrVmV6THLXSyXagWUzmSqh+UuiXHUwMDE3LM/ds7HeUVFHX1x1MDAxZaJvL9n23kH94PPBQ3N9b/BJ3e/tnf47/Vx1MDAwZV8oz3CEpVx1MDAxNVxcJZWZrc5cdTAwMWPk5UREQXNJ6oFMXHUwMDFmXHUwMDBi+Vx1MDAxMnFmqlJcdTAwMTmXq6hoXHUwMDE5XHUwMDFibqbQ0oNDjKvNl3/LU1xcN4wt1Xt8O1x1MDAwZmROZDs3SUmmPLeRKjreXHUwMDAwWTwvn5twLS/r/dbth6+Du/btXHUwMDE3trlSPzh+0cHKb4fVmrKUqPAoVWr2mmfYh4dfY4zTeFGh2lx02YrOnuuzl0E1nCch6Fx1MDAxNOuk9DmloY1cbrdQkVJ0tKNTZFx1MDAwNb3NXG43XHUwMDFky+R1es/ll3dN1/5cdTAwMDLe9Vwij5xk2tDBu85A0ny23q7i8KzoNEWuKbep+LBcblx1MDAxYmkqgs6k51x1MDAxNFx1MDAxOJg564fKoHIjNG11KPhrhXuQyfFcdTAwMTbaXHUwMDFhL8i7ozSBoD1FXHUwMDFiXHUwMDEwhti991xu/KJE+V7YXHUwMDE0zinghqpcdTAwMTZbXHUwMDE31ldcdTAwMTcwR1JcblxmXHUwMDA0kN5Ab0t1UGD0vNHoXHUwMDA2T1x1MDAxZNBKP4Zyw8BLtXNMSVW8h7DIbZTUdvdk9eClXHUwMDA1e650lIChXHUwMDEyIIZTeXhRfPJcdTAwMDXt4YJcdTAwMGLCeNFSM/Q8WD+hrFx1MDAwN0xcdTAwMDVcdTAwMWREZTiegFx1MDAxNVx1MDAxZVRB4ycpkITChGC5WVhWXHUwMDAyXHJKRV9EXHUwMDA10b3wxVx1MDAwNZqpXHUwMDAyONDROmkpiDR1fin9+EhRXf8kXHUwMDEwXHRcYlVcXKZiXHUwMDExT0SFRlx1MDAxNdWzXHUwMDA32WQu7Fx1MDAxZlx1MDAxNWy3kEtDpUgxusXHw5BcdTAwMGVo4fGoXFx79CFcdTAwMWNAXHUwMDE3ceNVMrLKYp6Ln1dGeFwizLD2mEJcdTAwMDVUXHUwMDBlXHUwMDFhVJGDvEB5KLqXVryK2uNUXl1TXHRzw1x1MDAxNIBeqbC5QD84L67AXHUwMDFkkX4yqlx1MDAxYlwiXHUwMDA1nT+Qbo5CvyydcOc0XHUwMDFkelIoLT45aoHUiMqhXHUwMDAzXHUwMDBmXtNcdTAwMThnXHUwMDE4XHUwMDFijDZVkbf4XHUwMDEzNEYxzyopbFx1MDAwMZAwuKu4tDpMI6xcdTAwMWXAzyaHgoTzXHUwMDFhcSp04jGoUnA6ZqaoOVx1MDAxZCk8n7B4YFxilstUVtdcdTAwMTHILaaagSfS1Fx1MDAxNj6sgODDclNcdTAwMTlxzKrJXHUwMDFjWKPJXHUwMDBipLmmnS5cdTAwMDV3q4RcdTAwMTRcdTAwMGJSMKqorsg7TK1mPl6HbNO5Jp5cbqRcdTAwMTBdKGpyJoewWZ3PXHUwMDFhmUDHmGPlPfyDs7Olb4vyq6+dnS13+Y4/um6/KPbjXHJcdTAwMWRcIsA/KCMpXHUwMDBilVx1MDAxNVBh8UVAeVx1MDAwNOpcZlx1MDAwMGZcdTAwMGWg9MolK+/PquNcdTAwMGVho6r+gGSYWzqpSohxcf1jwvqVhlx1MDAxMVx1MDAxMfbt3PtfNPGNaGK+QGQ+/irdXHUwMDA3/ORcdTAwMTa2XHUwMDAwc1x1MDAxMoZcdTAwMGXTKq37S65xtbdxerN1cHNzsrbOXHUwMDBl1eLJi0qlT8tjLNZ9J1wi6LSWXHUwMDFl1lx1MDAwM1x1MDAxYyEsb8NcdTAwMWSdSsUoKJuKrrJcdFlcdTAwMDCv0X3hI1x04s5cZlxmn1Mpi51e4rMgXHUwMDEy3ienXHUwMDEzaadGY1cp9lx1MDAwNSim327t+lx1MDAxN1x1MDAxNLzZQbhEXrmnM2dA7GRcdTAwMTguL+DeXHUwMDE5OsaJzsjVlpc44Cais7bo6DYjaZkvaFx1MDAwZVx1MDAxN1x1MDAxZFx1MDAwNFx1MDAxMcyEazr7qZDmuEiDb4Ig0uEsUoVHU1x1MDAxMWmS4KG4Jlx1MDAxOZyE4kPqiNOB/2lcdTAwMTB8LqjwYticovozXHUwMDA2Tlx1MDAwMUyxKj61VlB9Kkl+XCKVXG5cdTAwMTIu5HRcblpFXGZMye9/lTnoSlx1MDAxMjGkhVx1MDAxYkVcZjUzXHUwMDEzjFx1MDAwMsiTlVNcdTAwMWbWXHUwMDFkyWkuT/Hph+ijXHUwMDAxq5VSYjLoSOBU90qB/qQ1cJu/q1x1MDAwMzJqebpyTlx1MDAxMeyffjhcdTAwMTDrn6r9pdPr/apqrGyvrLT1fFM+XHUwMDBm3+X7XHUwMDFhXHUwMDAxnVxuZkVI+aiIXHRVyIP4XHUwMDAzk7ScZeyNhv2B4kJ1oSaGszHhvlxuXHUwMDBlKiSAlIHTXHSDo0vhlnkjfHpx9z98KZy0NFfAXHKFzlx1MDAxYWfLL4Vf3Z/ebn+MW4crx9Kd2uWP9yv+RemNb0hsKNFCXHUwMDAwROkkydSBuE9cdTAwMDdLe2a9omhJRlx1MDAwN1x1MDAxNP77iI3zdFx1MDAxYZ00XHUwMDA0cyrdkVx1MDAxZkk5TnKoKvtcdTAwMTVo9pcjNlx1MDAxM4lcYq0zJ6tFUienxfnC43cnMpFFXHUwMDAwLf9+uiisPfCyzKGqXHUwMDEzqFxi2qM1O8c9o1x1MDAxM46HmVx1MDAwMS/kXCJ4XFxcbolcdTAwMTGaXHUwMDBiQ1t1vrjY8GQ2skhcdTAwMGWkZ4LOqPaGXHUwMDBl1CxcXLmeyEdAR2BmgFx1MDAxOYZcdKuVdM+trZhbkSk/ZMomlFc8o4aL39+5t6323bf93ePPO0dcdTAwMWJLXHUwMDE3304u5zv1SCmdyflcbrFa5ddAf201XHRcdTAwMGbv11DsXGItsmuux1RwXHUwMDExo6tORLxcdTAwMWRcdTAwMTdyvKv5JjRCUEXaV1dgSlx1MDAwNYJcdTAwMTRXYFo4XHUwMDAzJPbS9SGC4lx1MDAxMc34PJTusHREv506z1wirFx1MDAxYlx1MDAxMXR6TH2l0S8ud7aHmqiN+WUhcomThFx1MDAwYkcn+JZWxslZXG5zqYzayiBlKKOLTFx1MDAxMkJcdTAwMGVfM9NMbsPEUjtONTPZTaNFIbxSlpB//lx1MDAxMppcdTAwMDWjw4RlWqSnnFx1MDAwNjg5oWohSFx1MDAwMySLR3uD0oMqXHUwMDFinzLMP5LuXHUwMDE4XHUwMDFk52LhOdByIH5cdTAwMWJ59lJpgJOLq6X6XHUwMDA055/O83ZCXHUwMDE5T1x1MDAxY52L0TpcdTAwMTV8pFx1MDAwZj9T3p9XYZ3BgLqMJEFcdTAwMTdytVxcdUmuhlx1MDAwNSW4SzGhUtQlP23a5td/0NpcYlx1MDAxN5x3Wlx1MDAxOFx1MDAxZDuxvOZcXOKlg5+ZPuw3TGKCYlx1MDAwNVV0VP7mmTj3sVKvXHUwMDAwTD7s2Fx1MDAxM0Jym4HILEJKsFmK6Z1CXaypXHUwMDAzpLI6VaR6+lx1MDAwMPlcdTAwMWMwsnSiN/xcdTAwMTL0STCdjsd4ypPmaTFcdTAwMTCjSclTXHUwMDA3SMUsg4NojKWR0m40edtcdTAwMDbGXHUwMDFhN/3UiGknXHUwMDE1zVFh4jQrjmFhXHUwMDE5UMxcdTAwMDQpZVx1MDAxNKeoOTMxXHI7q4aFjzrBODhcdTAwMTNcdTAwMDJOUVtcItNWeMKPzFxcLVx1MDAxMYxcdTAwMTVcdTAwMTb8MD5cYp7imXnwuV7yb49f8a7S6ez1oftPalx1MDAwMVxmatRcdTAwMWVdlKG0vbttxHfL47Jgklx1MDAxZlrpSuSazEScXHUwMDAw0p+//fn/dHn3LCJ9<!-- payload-end -->
  <defs>
    <style class="style-fonts">
      @font-face {
        font-family: "Virgil";
        src: url("https://file%2B.vscode-resource.vscode-cdn.net/home/vm00/.vscode/extensions/pomdtr.excalidraw-editor-3.7.4/public//dist/excalidraw-assets/Virgil.woff2");
      }
      @font-face {
        font-family: "Cascadia";
        src: url("https://file%2B.vscode-resource.vscode-cdn.net/home/vm00/.vscode/extensions/pomdtr.excalidraw-editor-3.7.4/public//dist/excalidraw-assets/Cascadia.woff2");
      }
      @font-face {
        font-family: "Assistant";
        src: url("https://file%2B.vscode-resource.vscode-cdn.net/home/vm00/.vscode/extensions/pomdtr.excalidraw-editor-3.7.4/public//dist/excalidraw-assets/Assistant-Regular.woff2");
      }
    </style>
    
  </defs>
  <rect x="0" y="0" width="789.9999999999999" height="428" fill="#ffffff"></rect><g stroke-linecap="round" transform="translate(10 10) rotate(0 384.99999999999994 204)"><path d="M32 0 C281.84 2.04, 531.14 1.31, 738 0 M32 0 C302.8 -2.23, 573.68 -2.43, 738 0 M738 0 C757.95 1.81, 770.97 12.46, 770 32 M738 0 C761.34 -0.39, 767.7 11.54, 770 32 M770 32 C771.9 158.38, 771.62 286.49, 770 376 M770 32 C767.89 125.51, 767.91 217.39, 770 376 M770 376 C770.23 397.56, 758.46 406.96, 738 408 M770 376 C770.32 397.14, 757.45 409.98, 738 408 M738 408 C566.9 408.83, 396.7 408.37, 32 408 M738 408 C499.92 409.33, 262.24 408.77, 32 408 M32 408 C10.13 408.91, 1.01 399.18, 0 376 M32 408 C9.24 406.61, 1.24 398.58, 0 376 M0 376 C-0.65 250.06, -0.99 124.88, 0 32 M0 376 C-1.57 256.3, -2.36 137.38, 0 32 M0 32 C-1.49 11.13, 12.27 -1.8, 32 0 M0 32 C-0.39 10.33, 11.56 -0.3, 32 0" stroke="#1e1e1e" stroke-width="2" fill="none"></path></g><g transform="translate(15 15) rotate(0 73.90991973876953 12.5)"><text x="0" y="0" font-family="Virgil, Segoe UI Emoji" font-size="20px" fill="#1e1e1e" text-anchor="start" style="white-space: pre;" direction="ltr" dominant-baseline="text-before-edge">Virtual Machine</text></g><g stroke-linecap="round" transform="translate(340.7272727272725 34.636363636363626) rotate(0 194.86363636363643 180.59090909090907)"><path d="M32 0 C143.62 -0.04, 255.91 -0.26, 357.73 0 M32 0 C107.25 -1.51, 183 -1.56, 357.73 0 M357.73 0 C377.44 0.38, 389.11 10.36, 389.73 32 M357.73 0 C379.87 1.22, 392.02 12.13, 389.73 32 M389.73 32 C392.33 97.14, 390.58 162.25, 389.73 329.18 M389.73 32 C388.56 142.25, 388.11 252.44, 389.73 329.18 M389.73 329.18 C388.46 349.98, 379.44 360.71, 357.73 361.18 M389.73 329.18 C388.43 352.69, 380.33 362.64, 357.73 361.18 M357.73 361.18 C232.03 362.41, 108.07 363.8, 32 361.18 M357.73 361.18 C287.4 361.52, 217.09 361.76, 32 361.18 M32 361.18 C11.01 361.31, 1.79 351.42, 0 329.18 M32 361.18 C11.38 363.43, -1.12 351.48, 0 329.18 M0 329.18 C2.02 223.43, 0.59 118.68, 0 32 M0 329.18 C1.05 246.05, 1.07 164.27, 0 32 M0 32 C0.25 9.98, 8.77 1.27, 32 0 M0 32 C0.61 10.09, 9.66 1.56, 32 0" stroke="#1e1e1e" stroke-width="2" fill="none"></path></g><g transform="translate(345.7272727272725 39.636363636363626) rotate(0 104.59988403320312 12.5)"><text x="0" y="0" font-family="Virgil, Segoe UI Emoji" font-size="20px" fill="#1e1e1e" text-anchor="start" style="white-space: pre;" direction="ltr" dominant-baseline="text-before-edge">Prometheus container</text></g><g stroke-linecap="round" transform="translate(582.9492779356062 58.676550662878924) rotate(0 62.77799479166657 62.777994791666515)"><path d="M23.32 14.97 C23.32 14.97, 23.32 14.97, 23.32 14.97 M23.32 14.97 C23.32 14.97, 23.32 14.97, 23.32 14.97 M4.43 41.14 C18.84 26.97, 20.49 16.35, 32.39 6.76 M4.86 40.08 C16.65 27.18, 27.99 15.72, 33.37 8.7 M8.44 50.82 C14.01 37.22, 23.47 27.54, 43.99 1.3 M4 45.7 C17.97 30.33, 34.82 15.82, 41.63 3.71 M8.92 50.89 C21.88 38.62, 37.29 20.18, 51.07 -0.68 M7.28 55.03 C21.4 37.45, 35.55 21.63, 49.74 1.78 M2.67 62.74 C21.36 40.14, 40.82 21.65, 57.67 -1.64 M4.72 60.97 C23.47 38.1, 45.44 14.72, 56.51 1.82 M4.94 71.52 C21.78 52.87, 42.94 28.24, 57.55 1.63 M2.35 68.28 C19.24 49.74, 32.65 31.69, 60.97 2.49 M3.56 76.24 C23.5 48.04, 52.89 21.25, 68.03 -0.63 M3.82 75.17 C24.85 48.44, 45.67 27.71, 65.64 1.16 M3.74 78.28 C20.69 64.15, 36.86 44.36, 70.93 1.01 M4.53 79.36 C23.84 55.87, 44.99 33.91, 72.89 1.59 M10.13 78.89 C23.57 66.48, 41.17 45.95, 76.3 1.72 M5.2 83.2 C30.43 57.1, 53.93 28.3, 78.15 2.13 M11.26 85.12 C26.68 59.31, 54.87 31.17, 80.82 6.13 M9.76 85.1 C32.34 61.3, 53.37 39.45, 79.7 2.88 M13.96 89.91 C23.57 71.39, 39.55 50.89, 86.83 7.13 M11.15 91.25 C35.55 61.27, 61.83 30.64, 83.15 6.14 M8.39 96.75 C39.63 62.56, 67.05 27.58, 87.32 6.51 M13.82 93.77 C35.27 68.55, 57.6 45.91, 85.89 8.6 M14.37 95.27 C33.49 78.86, 48.77 52.55, 87.04 8.61 M15.52 97.93 C34.12 80.72, 50.63 57.48, 91.63 8.53 M17.82 99.17 C46.22 68.61, 78.28 32.92, 95.53 8.92 M17.12 101.59 C34.51 81.32, 51.52 62.64, 94.86 13.96 M19.75 102.78 C37.26 79.3, 63.67 53.31, 99.47 11.48 M19.1 103.34 C53.42 70.55, 83.51 35.57, 98.6 13.62 M20.01 103.73 C43.34 85.38, 58.85 65.49, 105.06 16.97 M22.68 106.75 C50.1 73.6, 81.57 42.7, 100.31 16.63 M24.98 109.06 C51.35 82.51, 71.45 59.35, 103.09 15.39 M24.99 110.04 C44.67 87.87, 63.94 65.73, 106.3 18.7 M27.9 112.58 C42.35 92.44, 60.17 75.75, 105.3 19.86 M28.84 112.95 C47.52 87.59, 68.8 66.92, 107.59 23.54 M27.33 115.03 C46.04 94.98, 66.3 75.97, 110.71 25.81 M32.56 116.55 C55.82 83.56, 83.51 53.25, 111.65 23.56 M32.8 115.92 C62.21 89.64, 88.75 58.3, 116.72 30.32 M33.15 116.56 C65.24 83.08, 97.17 48.51, 112.95 26.8 M37.18 115.42 C66.76 94.9, 86.25 61.23, 112.14 29.25 M38.09 116.87 C68.86 83.65, 98.3 50.43, 115.44 31.66 M43.12 118.01 C63.15 99.03, 87.91 70.92, 119.56 36.4 M45.15 118.68 C69.2 90.35, 95.4 64.94, 118.29 33.51 M46.04 123.3 C73.45 98.88, 91.23 72.25, 123.69 33.3 M48.87 122.97 C69.72 96.54, 93.02 72.64, 121.78 36.19 M54.47 119.44 C76.09 98.8, 98.62 68.08, 123.81 43.2 M50.35 121.4 C66.59 109.16, 79.08 90.6, 123.08 41.46 M52.51 127.27 C72.57 104.01, 85.73 82.73, 121.47 45.11 M55.11 124.03 C72.78 101.78, 89.44 82.47, 121.45 48.62 M60.81 128.87 C82.4 105.82, 98.64 79.73, 124.7 54.69 M59.51 125.51 C82.75 98.3, 105.34 69.56, 121.87 50.97 M60.99 125.53 C87.92 104.28, 104.36 71.71, 124.63 59.15 M62.65 126.48 C82.68 102.11, 100.91 78.49, 121.1 60.3 M69.88 124.25 C78.38 112.04, 94.44 100.98, 125.02 64.58 M69.99 125.77 C80.65 112.99, 93.83 99.47, 124.64 65.76 M73.51 124.26 C92 110.43, 105.19 90.7, 124.08 72.9 M74.82 126.39 C86.8 111.9, 100.11 101.02, 121.98 68.34 M85.18 126.57 C96.07 107.5, 103.09 102.54, 125.41 76.15 M81.76 122.64 C95.84 106.84, 110.25 95.02, 125.01 74.77 M90.02 116.3 C101.57 107.4, 110.44 91.22, 119.25 83.24 M90.71 118.11 C99.87 108.61, 109.35 97.96, 122.7 85.82 M30.52 115.8 C30.52 115.8, 30.52 115.8, 30.52 115.8 M30.52 115.8 C30.52 115.8, 30.52 115.8, 30.52 115.8 M40.42 119.91 C32.33 114.8, 28.45 103.91, 13.09 97.46 M39.63 117.75 C31.57 111.08, 24.71 105.42, 10.59 93.13 M52.71 126.04 C39.61 113.88, 29.28 102.68, 8.24 88.16 M50.02 122.26 C35.39 109.61, 19.68 94.88, 8.31 87.93 M63.4 121.72 C48.51 110.86, 27.3 96.97, 7.66 81.5 M60.58 125.33 C45.56 109.94, 27.72 99.12, 3.42 76.71 M62.56 122.55 C47.35 112.66, 29.61 95.08, 6.25 71.67 M64.75 122.95 C45.04 106.52, 24.76 89.63, 1.94 71.49 M72.93 123.19 C44.29 104.42, 22.07 84.72, 6.19 64.04 M69.15 124.64 C53.76 109.8, 34.34 95.58, 1.74 66.83 M71.8 119.2 C54.39 104.65, 30.84 85.76, 2.57 56.29 M72.95 122.65 C48.04 102.3, 25.39 80.6, 1.65 58.4 M75.1 121.37 C59.17 101.65, 37.22 87.1, 2.5 51.37 M79.6 119.78 C50.61 96.22, 20.05 71.38, 2.24 55.38 M81.3 118.78 C64.23 104.18, 45.58 81.84, 0.79 51.81 M82.24 119.84 C53.5 94.92, 25.1 71.53, 4.97 48.21 M90.04 115.82 C59.33 94.02, 23.71 63.1, 2.98 46.23 M89.89 118.17 C64.14 94.85, 39.89 73.85, 4.85 46.52 M96.22 113.27 C70.43 97.14, 40.02 72.96, 4.08 38.31 M91.14 118.06 C73.22 102.67, 55.21 83.4, 4.67 41.57 M99.16 111.95 C71.16 96.63, 49.08 79.16, 8.84 37.79 M94.88 115.94 C63.59 84.06, 30.82 57.08, 4.94 36.68 M97.47 110.46 C64.74 85.28, 29.45 52.81, 11.7 35.62 M98.67 110.48 C61.87 82.41, 29.21 52.14, 7.27 31.78 M106.2 108.87 C65.1 79.64, 34.15 47.44, 10.61 28.28 M101.47 107.77 C79.64 89.47, 55.81 69.16, 9.88 31.2 M107.87 103.15 C70.42 81.76, 42.72 50.42, 15.44 28.79 M104.31 107.14 C81.7 84.7, 58 67.04, 15.48 28.13 M105.46 100.15 C82.85 83.22, 57.82 55.43, 18.85 24.45 M106.75 101.61 C87.27 86.55, 64.1 70.72, 15.74 25.78 M107.73 97.97 C90.19 82.02, 67.38 63.87, 19.91 19.24 M109.78 101.73 C92.03 84.52, 73.38 67.3, 18.47 21.19 M109.83 93.77 C89.64 76.77, 69.4 54.47, 18.96 15.46 M112.03 96.73 C85.55 72.18, 54.87 45.94, 20.05 18.37 M111.7 96 C82.78 63.25, 49.94 42.42, 20.27 10.83 M113.72 94.27 C83.27 65.96, 49.25 38.85, 23.64 14.79 M120.45 90.2 C90.59 71.01, 63.47 43.55, 24.65 10.17 M118.58 91.67 C98.34 72.08, 78.61 54.95, 29.34 12.49 M114.73 86.05 C98.95 66.44, 74.46 48.33, 35.55 10.48 M115.78 86.33 C100.72 71.85, 81.36 56.28, 31.89 12.65 M119.34 82.31 C96.28 64.15, 72.86 44.5, 33.7 9.95 M118.15 82.23 C101.52 65.77, 84.26 48.27, 36.84 7.98 M123.61 76.7 C100.12 65.65, 83.33 44.23, 42.27 3.64 M122.08 79.11 C102.36 63.4, 85.97 49.48, 37.29 7.88 M119.04 73.42 C92.18 51.14, 56.49 19.14, 45.18 1.27 M120.72 73.52 C104.35 58.7, 91.28 44.28, 41.74 3.64 M120.91 68.33 C98.29 45.97, 63.96 24.62, 48.79 2.82 M123.18 71.43 C93.64 42.66, 63.06 18.35, 47.39 1.49 M123.65 62.63 C109.1 48.52, 93.48 37.77, 47.48 -0.32 M121.46 63.27 C98.72 45.45, 77.86 23.29, 51.22 -0.81 M122.77 55.13 C108.17 49.68, 98.48 35.15, 56.32 0.9 M121.88 59.76 C98.89 36.77, 78.46 15.86, 58.26 1.71 M123.62 54.78 C102.26 35.2, 79.8 17.23, 67.61 2.43 M121.52 53.79 C106.21 37.1, 90.68 26.48, 63.69 1.9 M119.15 44.3 C113.31 39.06, 99.64 28.7, 72.84 1.95 M123.44 47.47 C108.54 38.26, 98.62 27.99, 70.37 0.79 M127.18 44.51 C105.68 30.32, 93.26 19.01, 76.29 0.04 M121.55 42.01 C112.75 31.84, 102.19 22.76, 75.97 0.15 M108.51 28.99 C103.55 25.07, 106.81 20.61, 89.95 12.35 M112.28 27.7 C104.36 20.82, 100.41 17.7, 91.5 12.13" stroke="#e14b2d" stroke-width="0.5" fill="none"></path><path d="M103.27 17.4 C110.68 22.91, 119.28 31.94, 122.63 40.95 C125.98 49.96, 125.08 61.68, 123.36 71.47 C121.63 81.27, 117.48 91.92, 112.26 99.72 C107.04 107.53, 100.57 113.97, 92.04 118.31 C83.51 122.65, 71.29 126.13, 61.09 125.75 C50.88 125.38, 38.91 120.74, 30.81 116.05 C22.7 111.35, 17.24 105.37, 12.45 97.59 C7.66 89.8, 3.51 79.22, 2.06 69.34 C0.61 59.46, 0.16 47.43, 3.74 38.32 C7.32 29.22, 15.81 20.96, 23.55 14.7 C31.29 8.45, 41.06 2.85, 50.17 0.79 C59.28 -1.28, 65.49 -8.36, 78.23 2.29 C90.97 12.95, 122.55 47.02, 126.61 64.7 C130.67 82.38, 103.88 108.89, 102.59 108.36 M112.29 22.6 C117.83 28.9, 121.3 41.12, 122.55 51.34 C123.79 61.55, 122.21 74.19, 119.76 83.91 C117.31 93.63, 113.92 103.19, 107.83 109.66 C101.74 116.13, 92.36 120.33, 83.23 122.71 C74.11 125.09, 62.69 125.48, 53.07 123.92 C43.45 122.37, 33.84 119.85, 25.51 113.38 C17.18 106.91, 6.82 93.99, 3.08 85.08 C-0.65 76.18, 2.02 68.93, 3.09 59.95 C4.16 50.97, 4.92 39.78, 9.49 31.19 C14.06 22.61, 22.43 13.83, 30.5 8.45 C38.58 3.07, 47.99 -0.32, 57.93 -1.08 C67.87 -1.83, 81.39 -0.44, 90.15 3.94 C98.9 8.31, 107.21 21.87, 110.46 25.16 C113.71 28.46, 110.11 23.53, 109.66 23.73" stroke="#e14b2d" stroke-width="1" fill="none"></path></g><g stroke-linecap="round" transform="translate(610.9630574063438 140.741807487995) rotate(0 34.04929723245692 6.297348572010392)"><path d="M-1.94 0.83 L68.88 1.33 L67.57 14.51 L-0.81 13.06" stroke="none" stroke-width="0" fill="#ffffff"></path><path d="M0.99 -0.24 C23.36 0.45, 51.26 -0.99, 66.48 0.15 M-0.25 -0.35 C15.04 -1.29, 28.94 0.62, 68.08 0.86 M69.14 -0.28 C68.97 3.25, 67.73 7.66, 68.76 13.72 M67.67 0.58 C68.61 3.23, 67.97 5.17, 67.64 12.33 M69.23 14.51 C53.36 14.74, 38.8 14.49, 1.26 11.27 M68.05 13.21 C52.9 13.06, 37.49 12.69, 0.19 11.9 M-0.84 12.55 C-1.01 10.77, -0.45 6.05, 0.87 0.39 M0.31 12.52 C0.05 8.7, -0.33 6.03, -0.58 0.33" stroke="#e14b2d" stroke-width="1" fill="none"></path></g><g stroke-linecap="round"><g transform="translate(627.0181764475128 171.92694679310233) rotate(181.11973861006382 18.98904232594117 -6.509459010530904)" fill-rule="evenodd"><path d="M-0.04 -0.85 C-0.27 -1.24, -2.99 1.22, -1.45 -0.23 C0.09 -1.67, 5.99 -7.29, 9.2 -9.53 C12.4 -11.77, 13.86 -13.92, 17.79 -13.66 C21.72 -13.4, 29.06 -9.87, 32.78 -7.96 C36.51 -6.05, 45.62 -3.44, 40.16 -2.2 C34.69 -0.97, 6.97 -1.28, 0 -0.53" stroke="none" stroke-width="0" fill="#ffffff" fill-rule="evenodd"></path><path d="M-0.14 -1.12 C-0.18 -1.52, -0.91 0.09, 0.69 -1.77 C2.28 -3.63, 6.41 -10.25, 9.44 -12.29 C12.47 -14.32, 14.98 -14.59, 18.87 -13.99 C22.76 -13.38, 29.66 -10.87, 32.79 -8.67 C35.93 -6.47, 43.12 -2.04, 37.68 -0.79 C32.23 0.46, 6.59 -1.48, 0.12 -1.16 M-1.68 0.9 C-1.9 0.09, -1.66 -1.58, 0.04 -3.64 C1.74 -5.71, 5.33 -9.85, 8.52 -11.48 C11.71 -13.1, 15.34 -13.97, 19.17 -13.39 C22.99 -12.81, 28.18 -9.87, 31.47 -7.98 C34.76 -6.09, 44.04 -3.48, 38.93 -2.05 C33.82 -0.63, 7.16 -0.03, 0.83 0.55" stroke="#e14b2d" stroke-width="1" fill="none"></path></g></g><mask></mask><g stroke-linecap="round"><g transform="translate(626.4395963285732 136.38082460248012) rotate(0 20.3501154128046 -34.83667196152304)" fill-rule="evenodd"><path d="M-1.17 -0.27 C-1.4 -0.42, -3.41 1.05, -3.13 0.07 C-2.85 -0.91, 1.73 -3.13, 0.51 -6.14 C-0.72 -9.15, -9.5 -16.67, -10.48 -17.99 C-11.46 -19.32, -8.18 -15.23, -5.38 -14.1 C-2.58 -12.97, 5.18 -9.75, 6.31 -11.21 C7.44 -12.66, 3.11 -19.18, 1.41 -22.85 C-0.3 -26.52, -3.41 -28.86, -3.91 -33.23 C-4.4 -37.59, -1.89 -45.82, -1.56 -49.06 C-1.24 -52.3, -2.01 -51.63, -1.96 -52.68 C-1.91 -53.73, -2.92 -57.2, -1.26 -55.38 C0.4 -53.55, 6.01 -45.02, 8.02 -41.71 C10.03 -38.41, 10.27 -35.35, 10.79 -35.55 C11.32 -35.75, 10.85 -40.75, 11.19 -42.91 C11.53 -45.07, 13.19 -46.3, 12.84 -48.53 C12.49 -50.76, 9.31 -55.08, 9.11 -56.31 C8.91 -57.54, 9.68 -53, 11.67 -55.91 C13.66 -58.81, 20.53 -72.29, 21.04 -73.75 C21.56 -75.2, 16.3 -68.1, 14.76 -64.62 C13.22 -61.13, 11.57 -54.71, 11.79 -52.83 C12.02 -50.95, 14.77 -55.96, 16.1 -53.36 C17.43 -50.75, 18.87 -40.34, 19.79 -37.19 C20.71 -34.04, 20.45 -32.43, 21.62 -34.45 C22.79 -36.47, 25.77 -45.37, 26.8 -49.34 C27.84 -53.31, 27.28 -56.49, 27.81 -58.26 C28.34 -60.04, 29.82 -59.13, 29.98 -59.97 C30.13 -60.81, 28.77 -64.53, 28.72 -63.31 C28.67 -62.1, 30.07 -55.91, 29.69 -52.68 C29.32 -49.45, 24.44 -47.58, 26.48 -43.94 C28.52 -40.3, 39.57 -34.29, 41.92 -30.84 C44.26 -27.39, 40.66 -25.6, 40.53 -23.23 C40.41 -20.86, 41.84 -19.37, 41.18 -16.64 C40.51 -13.91, 37.92 -8.11, 36.53 -6.85 C35.15 -5.58, 33.09 -9.32, 32.87 -9.04 C32.65 -8.76, 33.37 -4.58, 35.21 -5.18 C37.05 -5.78, 41.76 -11.27, 43.89 -12.63 C46.02 -14, 47.14 -13.2, 47.98 -13.39 C48.82 -13.59, 49.34 -15.64, 48.95 -13.8 C48.56 -11.96, 47.15 -4.36, 45.62 -2.36 C44.09 -0.37, 47.03 -1.81, 39.78 -1.84 C32.53 -1.86, 8.66 -3.27, 2.09 -2.49 C-4.47 -1.71, 0.79 2.15, 0.37 2.85 C-0.05 3.55, -0.28 2.13, -0.43 1.7" stroke="none" stroke-width="0" fill="#ffffff" fill-rule="evenodd"></path><path d="M1.34 1.13 C1.16 1.04, -0.69 -2.18, -1.4 -3.17 C-2.1 -4.16, -2.18 -3.27, -2.9 -4.8 C-3.63 -6.34, -5.42 -11.13, -5.74 -12.38 C-6.06 -13.63, -6.18 -12.5, -4.81 -12.32 C-3.44 -12.13, 2.53 -10.6, 2.47 -11.26 C2.41 -11.92, -4.13 -13.38, -5.15 -16.28 C-6.16 -19.18, -4.34 -23.14, -3.62 -28.67 C-2.9 -34.19, -0.65 -45.9, -0.81 -49.45 C-0.97 -52.99, -4.64 -50, -4.6 -49.94 C-4.56 -49.88, -2.25 -49.95, -0.58 -49.1 C1.1 -48.24, 3.99 -46.68, 5.45 -44.8 C6.91 -42.92, 6.97 -37.97, 8.16 -37.82 C9.36 -37.66, 12.37 -42.35, 12.63 -43.88 C12.89 -45.4, 10.8 -45.89, 9.74 -46.97 C8.68 -48.05, 6.03 -49.17, 6.26 -50.37 C6.5 -51.58, 8.69 -50.57, 11.14 -54.2 C13.6 -57.83, 20.12 -70.72, 21 -72.16 C21.87 -73.59, 17.8 -65.55, 16.41 -62.8 C15.02 -60.05, 12.33 -58.05, 12.64 -55.67 C12.95 -53.28, 16.39 -51.11, 18.26 -48.49 C20.14 -45.87, 22.96 -42.59, 23.91 -39.96 C24.87 -37.33, 23.79 -31.97, 24.01 -32.71 C24.22 -33.46, 24.96 -39.24, 25.23 -44.41 C25.49 -49.58, 24.29 -60.92, 25.61 -63.74 C26.92 -66.57, 32.69 -62.15, 33.12 -61.35 C33.56 -60.56, 29.07 -60.34, 28.22 -58.96 C27.37 -57.59, 27.93 -54.78, 28.01 -53.11 C28.08 -51.43, 26.71 -51.79, 28.67 -48.93 C30.62 -46.06, 37.98 -39.86, 39.74 -35.92 C41.5 -31.97, 39.53 -28.54, 39.24 -25.27 C38.95 -22, 38.49 -18.71, 37.99 -16.3 C37.5 -13.89, 36.52 -12.11, 36.28 -10.82 C36.04 -9.53, 36.66 -9.36, 36.56 -8.56 C36.47 -7.76, 34.08 -5.32, 35.71 -6.02 C37.35 -6.73, 44.08 -11.23, 46.37 -12.79 C48.66 -14.34, 49.15 -15.81, 49.46 -15.36 C49.76 -14.91, 49.33 -12.03, 48.2 -10.1 C47.07 -8.17, 44.82 -5.53, 42.68 -3.78 C40.54 -2.04, 42.85 -0.56, 35.37 0.37 C27.89 1.29, 4.43 1.66, -2.2 1.77 C-8.84 1.88, -4.97 1.01, -4.42 1.03 C-3.87 1.04, 0.48 1.59, 1.1 1.86 M-1.38 -0.72 C-1.96 -0.3, -3.47 -0.4, -4.01 -0.77 C-4.54 -1.14, -4.46 -0.1, -4.6 -2.92 C-4.73 -5.74, -5.56 -16.18, -4.79 -17.69 C-4.03 -19.19, -1.82 -13.79, -0.03 -11.93 C1.77 -10.08, 6.8 -5.53, 5.96 -6.55 C5.12 -7.56, -3.03 -14.42, -5.04 -18.02 C-7.04 -21.63, -6.11 -23.74, -6.07 -28.17 C-6.03 -32.6, -5.17 -41.01, -4.78 -44.6 C-4.39 -48.2, -4.53 -48.13, -3.76 -49.75 C-2.99 -51.36, -2.47 -54.89, -0.15 -54.3 C2.16 -53.71, 8.64 -48.75, 10.14 -46.2 C11.65 -43.64, 8.52 -39.09, 8.88 -38.96 C9.24 -38.84, 12.05 -43.86, 12.32 -45.47 C12.59 -47.08, 11.29 -47.09, 10.51 -48.62 C9.74 -50.15, 7.85 -52.74, 7.67 -54.65 C7.48 -56.57, 7.74 -57.14, 9.41 -60.12 C11.08 -63.09, 15.78 -72.04, 17.66 -72.49 C19.54 -72.94, 21.54 -65.05, 20.67 -62.83 C19.81 -60.61, 13.17 -61.24, 12.47 -59.18 C11.77 -57.11, 15.63 -53.07, 16.45 -50.43 C17.27 -47.79, 15.92 -45.9, 17.4 -43.32 C18.88 -40.74, 24.63 -34.59, 25.34 -34.96 C26.04 -35.33, 21.1 -40.66, 21.63 -45.55 C22.16 -50.43, 27.33 -61.77, 28.5 -64.29 C29.68 -66.8, 28.16 -61.51, 28.68 -60.64 C29.19 -59.77, 31.22 -59.68, 31.59 -59.06 C31.96 -58.44, 31.54 -59.15, 30.91 -56.94 C30.28 -54.73, 27.07 -50.04, 27.8 -45.8 C28.54 -41.56, 32.34 -34.22, 35.33 -31.5 C38.33 -28.79, 45.56 -32.64, 45.77 -29.52 C45.98 -26.4, 37.57 -16.96, 36.6 -12.81 C35.64 -8.65, 40.56 -5.65, 39.97 -4.57 C39.39 -3.49, 33.4 -6, 33.1 -6.33 C32.81 -6.66, 35.73 -5.97, 38.19 -6.57 C40.66 -7.17, 46.43 -9.29, 47.87 -9.93 C49.3 -10.58, 46.34 -10.11, 46.8 -10.43 C47.27 -10.75, 51.55 -13.01, 50.65 -11.86 C49.75 -10.71, 43.14 -5.67, 41.38 -3.54 C39.62 -1.4, 47.43 -0.31, 40.09 0.96 C32.75 2.23, 4.5 3.89, -2.64 4.07 C-9.78 4.26, -3.06 2.3, -2.74 2.09 C-2.42 1.88, -1.13 3.41, -0.72 2.82" stroke="#e14b2d" stroke-width="1" fill="none"></path></g></g><mask></mask><g stroke-linecap="round" transform="translate(31 278.7272727272727) rotate(0 123.13636363636357 35.863636363636374)"><path d="M17.93 0 C83.9 -1.22, 151.86 0.66, 228.34 0 M17.93 0 C93.64 -1.84, 169.5 -0.17, 228.34 0 M228.34 0 C239.85 -1.91, 244.98 6.76, 246.27 17.93 M228.34 0 C241.28 -0.47, 245.75 5.79, 246.27 17.93 M246.27 17.93 C244.71 31.22, 245.52 41.85, 246.27 53.8 M246.27 17.93 C246.18 32.19, 246.66 46, 246.27 53.8 M246.27 53.8 C246.45 66.49, 240.33 71.28, 228.34 71.73 M246.27 53.8 C245.09 65.07, 242.58 72.27, 228.34 71.73 M228.34 71.73 C168.18 72.28, 111.37 70.23, 17.93 71.73 M228.34 71.73 C150.48 70.95, 72.29 72.42, 17.93 71.73 M17.93 71.73 C4.12 70.04, 0.7 65.8, 0 53.8 M17.93 71.73 C5.19 71.28, 1.61 65.87, 0 53.8 M0 53.8 C0.33 45.2, -1.56 37.49, 0 17.93 M0 53.8 C-0.66 41.1, 0.5 27.6, 0 17.93 M0 17.93 C1.98 6.89, 4.75 0.41, 17.93 0 M0 17.93 C-0.19 7.22, 5.89 -1.13, 17.93 0" stroke="#1e1e1e" stroke-width="2" fill="none"></path></g><g transform="translate(51.50646556507456 289.59090909090907) rotate(0 102.62989807128906 25)"><text x="102.62989807128906" y="0" font-family="Virgil, Segoe UI Emoji" font-size="20px" fill="#1e1e1e" text-anchor="middle" style="white-space: pre;" direction="ltr" dominant-baseline="text-before-edge">node exporter : 9100</text><text x="102.62989807128906" y="25" font-family="Virgil, Segoe UI Emoji" font-size="20px" fill="#1e1e1e" text-anchor="middle" style="white-space: pre;" direction="ltr" dominant-baseline="text-before-edge">(systemd install)</text></g><g stroke-linecap="round" transform="translate(375.31818181818187 288.8181818181818) rotate(0 64.5 19.04545454545456)"><path d="M9.52 0 C42.44 -1.71, 75.84 -1.13, 119.48 0 M9.52 0 C52.02 0.33, 96.92 -0.12, 119.48 0 M119.48 0 C124.23 1.87, 127.47 3.14, 129 9.52 M119.48 0 C124.78 1.82, 129.69 3.36, 129 9.52 M129 9.52 C129.5 15.35, 127.97 24.01, 129 28.57 M129 9.52 C128.62 13.04, 128.53 17.29, 129 28.57 M129 28.57 C129.76 36.75, 126.94 36.11, 119.48 38.09 M129 28.57 C129.7 35.33, 126.92 38.18, 119.48 38.09 M119.48 38.09 C75.29 37.97, 33.63 37.98, 9.52 38.09 M119.48 38.09 C90.89 37.38, 62.39 36.57, 9.52 38.09 M9.52 38.09 C3.5 38.43, -0.34 36.79, 0 28.57 M9.52 38.09 C3.28 38.71, 0.88 32.93, 0 28.57 M0 28.57 C-0.61 22.17, -1.36 13.55, 0 9.52 M0 28.57 C0.4 24.05, 0.54 17.38, 0 9.52 M0 9.52 C-1.5 2.1, 1.21 -1.56, 9.52 0 M0 9.52 C-1.49 1.68, 2.15 -0.76, 9.52 0" stroke="#1e1e1e" stroke-width="2" fill="none"></path></g><g transform="translate(401.59822637384593 295.3636363636364) rotate(0 38.21995544433594 12.5)"><text x="38.21995544433594" y="0" font-family="Virgil, Segoe UI Emoji" font-size="20px" fill="#1e1e1e" text-anchor="middle" style="white-space: pre;" direction="ltr" dominant-baseline="text-before-edge">scraping</text></g><g stroke-linecap="round" transform="translate(547.3055629850409 349.5080825002725) rotate(0 42.82857328017809 10.21924631299504)"><path d="M55.97 -0.33 C64.6 0.16, 74.26 3.44, 79.13 5.5 C83.99 7.55, 86.25 10.04, 85.18 12.01 C84.11 13.97, 79.48 15.73, 72.7 17.28 C65.92 18.82, 53.64 21.24, 44.49 21.28 C35.34 21.32, 25.11 18.92, 17.82 17.53 C10.53 16.15, 2.85 14.93, 0.76 12.96 C-1.34 11, 1.07 7.69, 5.26 5.74 C9.46 3.79, 16.57 1.98, 25.93 1.26 C35.29 0.55, 54.91 1.4, 61.42 1.45 C67.93 1.49, 65.46 1.42, 64.99 1.55 M47.11 -0.4 C55.62 0.15, 66.93 2.56, 73.2 4.44 C79.46 6.33, 84.14 8.71, 84.71 10.92 C85.28 13.13, 82.05 16.39, 76.64 17.69 C71.24 19, 61.18 18.59, 52.27 18.76 C43.36 18.94, 31.17 19.7, 23.17 18.75 C15.16 17.8, 7.55 14.93, 4.25 13.05 C0.94 11.17, 0.68 9.24, 3.33 7.48 C5.99 5.72, 12.72 3.83, 20.2 2.49 C27.67 1.15, 43.32 -0.1, 48.17 -0.55 C53.01 -1.01, 49.57 -0.45, 49.24 -0.24" stroke="none" stroke-width="0" fill="#ced4da"></path><path d="M59.76 1.66 C68.16 2.47, 77.6 4.12, 81.67 5.87 C85.74 7.63, 86.36 10.25, 84.2 12.21 C82.05 14.18, 76.01 16.12, 68.75 17.64 C61.49 19.16, 49.61 21.23, 40.64 21.33 C31.68 21.43, 21.63 19.99, 14.96 18.25 C8.29 16.51, 2.17 13.1, 0.62 10.9 C-0.93 8.7, 0.69 6.93, 5.67 5.04 C10.66 3.15, 20.91 0.09, 30.53 -0.43 C40.14 -0.94, 57.05 1.47, 63.36 1.94 C69.66 2.4, 68.73 2.35, 68.36 2.35 M46.4 -1.29 C55.09 -1.43, 65.85 1.3, 72.61 3.04 C79.37 4.77, 86.37 7.05, 86.95 9.11 C87.53 11.18, 81.73 13.35, 76.11 15.43 C70.48 17.51, 61.74 20.89, 53.21 21.6 C44.69 22.3, 33.05 21.05, 24.96 19.66 C16.87 18.26, 8.53 15.3, 4.69 13.21 C0.85 11.13, -0.35 9.21, 1.93 7.13 C4.22 5.05, 10.97 1.9, 18.4 0.73 C25.84 -0.44, 41.71 0.34, 46.53 0.1 C51.36 -0.15, 47.46 -0.67, 47.35 -0.73" stroke="#000000" stroke-width="1" fill="none"></path></g><g stroke-linecap="round"><g transform="translate(547.8266238425381 270.23990691281665) rotate(0 43.340073387997336 44.31168457411184)" fill-rule="evenodd"><path d="M1.71 1.76 L-1.79 88.78 L87.77 90.46 L86.86 -1.37 L0.93 1.03" stroke="none" stroke-width="0" fill="#ced4da" fill-rule="evenodd"></path><path d="M0 0 C0.19 25.35, 1.28 54.33, -0.13 89.4 M0 0 C0.15 34.98, -0.39 70.07, -0.13 89.4 M-0.13 89.4 C34.23 87.6, 65.84 89.53, 86.81 89.4 M-0.13 89.4 C33.29 90.35, 65.65 89.23, 86.81 89.4 M86.81 89.4 C88.24 63.12, 84.62 38.42, 86.48 -0.78 M86.81 89.4 C85.1 62.59, 86.01 37.88, 86.48 -0.78 M86.48 -0.78 C52.22 0.41, 20.61 -0.53, 0 0 M86.48 -0.78 C66.03 -1.24, 44.99 -1.29, 0 0 M0 0 C0 0, 0 0, 0 0 M0 0 C0 0, 0 0, 0 0" stroke="#ced4da" stroke-width="1" fill="none"></path></g></g><mask></mask><g stroke-linecap="round" transform="translate(547.6593107231588 259.51513596055185) rotate(0 42.82857328017809 10.21924631299504)"><path d="M26.21 1.29 C34.12 0.16, 47.68 -0.69, 56.39 0.02 C65.1 0.74, 73.5 3.78, 78.46 5.56 C83.43 7.34, 87.34 8.6, 86.18 10.7 C85.03 12.81, 78.34 16.56, 71.53 18.22 C64.72 19.87, 54.49 20.52, 45.32 20.62 C36.16 20.71, 23.83 20.08, 16.54 18.81 C9.24 17.53, 3.6 15.2, 1.55 12.94 C-0.49 10.69, -1.5 7.36, 4.27 5.28 C10.03 3.19, 28.93 1.25, 36.12 0.44 C43.3 -0.37, 47.35 0.41, 47.39 0.41 M35.16 1.34 C43.79 0.9, 56.48 2.07, 64.49 2.76 C72.5 3.44, 80.16 3.7, 83.2 5.46 C86.24 7.21, 85.82 11.21, 82.71 13.3 C79.6 15.39, 72.3 16.8, 64.54 18.01 C56.79 19.21, 45.22 20.61, 36.17 20.53 C27.11 20.45, 16.23 19.37, 10.21 17.52 C4.18 15.67, -0.22 11.85, 0.03 9.43 C0.27 7.01, 5.89 4.62, 11.66 3 C17.42 1.39, 30.4 0.3, 34.62 -0.28 C38.84 -0.86, 36.67 -0.82, 36.99 -0.47" stroke="none" stroke-width="0" fill="#f6f7f7"></path><path d="M61.01 0.85 C68.88 1.46, 77.84 3.2, 81.59 5.38 C85.34 7.56, 85.81 11.61, 83.51 13.91 C81.21 16.2, 75.27 18.17, 67.8 19.14 C60.33 20.1, 48.14 19.94, 38.71 19.69 C29.27 19.43, 17.49 19.21, 11.19 17.61 C4.88 16, 1.48 12.17, 0.89 10.05 C0.29 7.92, 2.27 6.45, 7.6 4.86 C12.93 3.26, 22.91 1.01, 32.85 0.48 C42.8 -0.05, 60.57 1.32, 67.29 1.67 C74.01 2.02, 73.33 2.51, 73.16 2.56 M25.46 0.56 C33.07 -0.59, 43.31 -1.4, 52.04 -0.55 C60.77 0.3, 72.04 3.7, 77.83 5.67 C83.61 7.63, 87.26 9.46, 86.74 11.23 C86.22 12.99, 81.28 14.74, 74.73 16.23 C68.18 17.72, 56.89 19.94, 47.46 20.19 C38.02 20.43, 25.93 18.9, 18.11 17.71 C10.3 16.52, 2.99 15.17, 0.56 13.06 C-1.87 10.95, -0.17 7.28, 3.55 5.05 C7.26 2.82, 19.2 0.39, 22.84 -0.32 C26.48 -1.02, 24.7 0.58, 25.37 0.82" stroke="#000000" stroke-width="1" fill="none"></path></g><g stroke-linecap="round"><g transform="translate(547.9437430261041 270.4048298447771) rotate(0 -0.1804591501885966 45.63345821721467)"><path d="M0 0 C2.47 24.04, -0.49 46.07, -0.36 91.27 M0 0 C0.21 25.41, -0.33 49.22, -0.36 91.27" stroke="#000000" stroke-width="1" fill="none"></path></g></g><mask></mask><g stroke-linecap="round"><g transform="translate(634.7696912347014 269.8718180501805) rotate(0 -0.3704790500559625 45.4219266305698)"><path d="M0 0 C-0.39 35.11, -0.35 69.58, -0.74 90.84 M0 0 C1.1 22.74, -0.25 44.1, -0.74 90.84" stroke="#000000" stroke-width="1" fill="none"></path></g></g><mask></mask><g stroke-linecap="round" transform="translate(377.5909090909091 98.36363636363635) rotate(0 64.5 30)"><path d="M15 0 C51.35 0.24, 85.21 -2.25, 114 0 M15 0 C53.91 0.85, 90.57 0.73, 114 0 M114 0 C123.59 -1.58, 127.33 4.77, 129 15 M114 0 C122.2 -1.52, 130.34 5.48, 129 15 M129 15 C128.33 24.52, 129.44 35.01, 129 45 M129 15 C128.03 22.67, 128.53 30.94, 129 45 M129 45 C130.26 55.85, 124.46 60.75, 114 60 M129 45 C128.14 56.65, 123.72 58.25, 114 60 M114 60 C82.96 58.19, 46.88 60.1, 15 60 M114 60 C86.21 60.52, 58.13 60.38, 15 60 M15 60 C4.72 58.79, -1.4 53.68, 0 45 M15 60 C6.37 60.53, -1.7 53.73, 0 45 M0 45 C0.74 35.31, 1.36 27.65, 0 15 M0 45 C-0.86 35.8, 0.34 28.12, 0 15 M0 15 C-0.13 5.5, 4.72 -0.28, 15 0 M0 15 C-0.07 5.08, 3.33 -1.75, 15 0" stroke="#1e1e1e" stroke-width="2" fill="none"></path></g><g transform="translate(385.25097378817475 103.36363636363635) rotate(0 56.839935302734375 25)"><text x="56.839935302734375" y="0" font-family="Virgil, Segoe UI Emoji" font-size="20px" fill="#1e1e1e" text-anchor="middle" style="white-space: pre;" direction="ltr" dominant-baseline="text-before-edge">webserver /</text><text x="56.839935302734375" y="25" font-family="Virgil, Segoe UI Emoji" font-size="20px" fill="#1e1e1e" text-anchor="middle" style="white-space: pre;" direction="ltr" dominant-baseline="text-before-edge">requests</text></g><g stroke-linecap="round" transform="translate(364.8636363636364 192.45454545454533) rotate(0 94.9545454545455 30)"><path d="M15 0 C48.56 -0.11, 83.36 -1.51, 174.91 0 M15 0 C52.47 1.91, 91.46 1.82, 174.91 0 M174.91 0 C186.18 0.47, 190.89 3.9, 189.91 15 M174.91 0 C183.81 -1.7, 189.38 5.47, 189.91 15 M189.91 15 C190.4 25.26, 189.04 34.9, 189.91 45 M189.91 15 C190.21 23.71, 190.55 33, 189.91 45 M189.91 45 C189.48 53.43, 183.42 60.38, 174.91 60 M189.91 45 C190.56 53.19, 186.91 62.19, 174.91 60 M174.91 60 C114.07 62.2, 48.89 59.16, 15 60 M174.91 60 C141.82 60.32, 108.38 59.85, 15 60 M15 60 C6.62 61.14, 1.29 56.2, 0 45 M15 60 C3.15 61.67, -1.24 53.13, 0 45 M0 45 C-0.55 36.21, 0.89 25.23, 0 15 M0 45 C-0.31 35.43, 0.25 25.56, 0 15 M0 15 C2 6.66, 5.5 -1.25, 15 0 M0 15 C1.13 4.52, 4.46 0.86, 15 0" stroke="#1e1e1e" stroke-width="2" fill="none"></path></g><g transform="translate(387.06825048273265 197.45454545454533) rotate(0 72.74993133544922 25)"><text x="72.74993133544922" y="0" font-family="Virgil, Segoe UI Emoji" font-size="20px" fill="#1e1e1e" text-anchor="middle" style="white-space: pre;" direction="ltr" dominant-baseline="text-before-edge">prometheus </text><text x="72.74993133544922" y="25" font-family="Virgil, Segoe UI Emoji" font-size="20px" fill="#1e1e1e" text-anchor="middle" style="white-space: pre;" direction="ltr" dominant-baseline="text-before-edge">metrics : 9090</text></g><g stroke-linecap="round"><g transform="translate(377.5454545454546 283.7727272727273) rotate(0 -110.90909090909093 -24.090909090909122)"><path d="M-0.3 -0.56 C-15.71 -8.55, -55.03 -46.87, -91.88 -48.55 C-128.74 -50.22, -199.73 -16.9, -221.42 -10.64 M1.74 1.75 C-13.8 -6, -55.1 -45.38, -92.39 -47.2 C-129.67 -49.02, -200.39 -15.39, -221.97 -9.18" stroke="#1971c2" stroke-width="2" fill="none"></path></g><g transform="translate(377.5454545454546 283.7727272727273) rotate(0 -110.90909090909093 -24.090909090909122)"><path d="M-199.11 -28.6 C-208.07 -20.52, -215.65 -14.54, -221.97 -9.18 M-199.11 -28.6 C-205.73 -21.94, -213.26 -16.85, -221.97 -9.18" stroke="#1971c2" stroke-width="2" fill="none"></path></g><g transform="translate(377.5454545454546 283.7727272727273) rotate(0 -110.90909090909093 -24.090909090909122)"><path d="M-191.97 -9.36 C-203.3 -7.96, -213.36 -8.64, -221.97 -9.18 M-191.97 -9.36 C-200.86 -8.91, -210.7 -10.04, -221.97 -9.18" stroke="#1971c2" stroke-width="2" fill="none"></path></g></g><mask></mask><g stroke-linecap="round"><g transform="translate(438.4545454545455 289.2272727272727) rotate(0 -2.272727272727309 -16.363636363636374)"><path d="M0.2 0.92 C-3.15 -0.94, -23.96 -4.84, -21.13 -10.29 C-18.31 -15.74, 10.6 -28.05, 17.15 -31.78 M-1.15 0.36 C-4.51 -1.94, -24.63 -6.42, -21.72 -12.08 C-18.81 -17.75, 9.55 -30.38, 16.31 -33.62" stroke="#1971c2" stroke-width="2" fill="none"></path></g><g transform="translate(438.4545454545455 289.2272727272727) rotate(0 -2.272727272727309 -16.363636363636374)"><path d="M0.54 -17.74 C5.35 -20.03, 8.24 -24.8, 16.31 -33.62 M0.54 -17.74 C7.39 -23.1, 11.61 -29.67, 16.31 -33.62" stroke="#1971c2" stroke-width="2" fill="none"></path></g><g transform="translate(438.4545454545455 289.2272727272727) rotate(0 -2.272727272727309 -16.363636363636374)"><path d="M-5.98 -31.59 C0.33 -30.92, 4.63 -32.71, 16.31 -33.62 M-5.98 -31.59 C3.45 -31.7, 10.14 -33.02, 16.31 -33.62" stroke="#1971c2" stroke-width="2" fill="none"></path></g></g><mask></mask><g stroke-linecap="round"><g transform="translate(451.18181818181824 336.49999999999994) rotate(0 52.72727272727269 19.54545454545456)"><path d="M-0.15 -0.78 C8.48 5.72, 33.26 35.45, 50.74 38.01 C68.21 40.58, 95.72 18.39, 104.71 14.61 M-1.69 1.43 C6.94 8.13, 32.03 36.65, 50.18 38.99 C68.33 41.33, 98.16 19.26, 107.22 15.48" stroke="#f08c00" stroke-width="2" fill="none"></path></g><g transform="translate(451.18181818181824 336.49999999999994) rotate(0 52.72727272727269 19.54545454545456)"><path d="M87.59 38.17 C90.66 34.59, 94.34 27.29, 107.22 15.48 M87.59 38.17 C92.39 32.11, 96.81 27.58, 107.22 15.48" stroke="#f08c00" stroke-width="2" fill="none"></path></g><g transform="translate(451.18181818181824 336.49999999999994) rotate(0 52.72727272727269 19.54545454545456)"><path d="M77.6 20.25 C82.65 20.5, 88.46 17.02, 107.22 15.48 M77.6 20.25 C84.57 18.31, 91.29 17.9, 107.22 15.48" stroke="#f08c00" stroke-width="2" fill="none"></path></g></g><mask></mask><g stroke-linecap="round" transform="translate(66.24457651518401 78.68602850465666) rotate(0 63.941917866069446 38.26851694988882)"><path d="M0 0 C47.85 -2, 91.56 -0.68, 127.88 0 M0 0 C36.35 -0.3, 71.24 0.64, 127.88 0 M127.88 0 C129.4 19.43, 128.61 35.05, 127.88 76.54 M127.88 0 C128.82 21.56, 128.59 43.58, 127.88 76.54 M127.88 76.54 C102.09 77.63, 75.95 75.5, 0 76.54 M127.88 76.54 C79.07 76.97, 30.61 75.9, 0 76.54 M0 76.54 C1.01 47.96, -0.74 25.16, 0 0 M0 76.54 C0.6 47.55, 0.67 20.86, 0 0" stroke="#000000" stroke-width="1" fill="none"></path></g><g stroke-linecap="round"><g transform="translate(65.1689787642888 89.40256289690083) rotate(0 64.42096614922218 0)"><path d="M-0.49 -0.31 C20.85 -0.53, 107.46 -0.31, 129.14 -0.25 M1.45 -1.52 C22.56 -1.04, 107.06 0.67, 128.35 1.16" stroke="#000000" stroke-width="1" fill="none"></path></g></g><mask></mask><g stroke-linecap="round" transform="translate(70.73261198413888 82.95759830466548) rotate(0 2.5009765625 2.5009765625)"><path d="M5 2.5 C5 2.65, 4.99 2.79, 4.96 2.94 C4.94 3.08, 4.9 3.22, 4.85 3.36 C4.8 3.49, 4.74 3.63, 4.67 3.75 C4.59 3.88, 4.51 4, 4.42 4.11 C4.32 4.22, 4.22 4.32, 4.11 4.42 C4 4.51, 3.88 4.59, 3.75 4.67 C3.63 4.74, 3.49 4.8, 3.36 4.85 C3.22 4.9, 3.08 4.94, 2.94 4.96 C2.79 4.99, 2.65 5, 2.5 5 C2.36 5, 2.21 4.99, 2.07 4.96 C1.92 4.94, 1.78 4.9, 1.65 4.85 C1.51 4.8, 1.38 4.74, 1.25 4.67 C1.13 4.59, 1 4.51, 0.89 4.42 C0.78 4.32, 0.68 4.22, 0.59 4.11 C0.49 4, 0.41 3.88, 0.34 3.75 C0.26 3.63, 0.2 3.49, 0.15 3.36 C0.1 3.22, 0.06 3.08, 0.04 2.94 C0.01 2.79, 0 2.65, 0 2.5 C0 2.36, 0.01 2.21, 0.04 2.07 C0.06 1.92, 0.1 1.78, 0.15 1.65 C0.2 1.51, 0.26 1.38, 0.34 1.25 C0.41 1.13, 0.49 1, 0.59 0.89 C0.68 0.78, 0.78 0.68, 0.89 0.59 C1 0.49, 1.13 0.41, 1.25 0.34 C1.38 0.26, 1.51 0.2, 1.65 0.15 C1.78 0.1, 1.92 0.06, 2.07 0.04 C2.21 0.01, 2.36 0, 2.5 0 C2.65 0, 2.79 0.01, 2.94 0.04 C3.08 0.06, 3.22 0.1, 3.36 0.15 C3.49 0.2, 3.63 0.26, 3.75 0.34 C3.88 0.41, 4 0.49, 4.11 0.59 C4.22 0.68, 4.32 0.78, 4.42 0.89 C4.51 1, 4.59 1.13, 4.67 1.25 C4.74 1.38, 4.8 1.51, 4.85 1.65 C4.9 1.78, 4.94 1.92, 4.96 2.07 C4.99 2.21, 5 2.43, 5 2.5 C5.01 2.57, 5.01 2.43, 5 2.5" stroke="none" stroke-width="0" fill="#fa5252"></path><path d="M5 2.5 C5 2.65, 4.99 2.79, 4.96 2.94 C4.94 3.08, 4.9 3.22, 4.85 3.36 C4.8 3.49, 4.74 3.63, 4.67 3.75 C4.59 3.88, 4.51 4, 4.42 4.11 C4.32 4.22, 4.22 4.32, 4.11 4.42 C4 4.51, 3.88 4.59, 3.75 4.67 C3.63 4.74, 3.49 4.8, 3.36 4.85 C3.22 4.9, 3.08 4.94, 2.94 4.96 C2.79 4.99, 2.65 5, 2.5 5 C2.36 5, 2.21 4.99, 2.07 4.96 C1.92 4.94, 1.78 4.9, 1.65 4.85 C1.51 4.8, 1.38 4.74, 1.25 4.67 C1.13 4.59, 1 4.51, 0.89 4.42 C0.78 4.32, 0.68 4.22, 0.59 4.11 C0.49 4, 0.41 3.88, 0.34 3.75 C0.26 3.63, 0.2 3.49, 0.15 3.36 C0.1 3.22, 0.06 3.08, 0.04 2.94 C0.01 2.79, 0 2.65, 0 2.5 C0 2.36, 0.01 2.21, 0.04 2.07 C0.06 1.92, 0.1 1.78, 0.15 1.65 C0.2 1.51, 0.26 1.38, 0.34 1.25 C0.41 1.13, 0.49 1, 0.59 0.89 C0.68 0.78, 0.78 0.68, 0.89 0.59 C1 0.49, 1.13 0.41, 1.25 0.34 C1.38 0.26, 1.51 0.2, 1.65 0.15 C1.78 0.1, 1.92 0.06, 2.07 0.04 C2.21 0.01, 2.36 0, 2.5 0 C2.65 0, 2.79 0.01, 2.94 0.04 C3.08 0.06, 3.22 0.1, 3.36 0.15 C3.49 0.2, 3.63 0.26, 3.75 0.34 C3.88 0.41, 4 0.49, 4.11 0.59 C4.22 0.68, 4.32 0.78, 4.42 0.89 C4.51 1, 4.59 1.13, 4.67 1.25 C4.74 1.38, 4.8 1.51, 4.85 1.65 C4.9 1.78, 4.94 1.92, 4.96 2.07 C4.99 2.21, 5 2.43, 5 2.5 C5.01 2.57, 5.01 2.43, 5 2.5" stroke="#000000" stroke-width="1" fill="none"></path></g><g stroke-linecap="round" transform="translate(80.99530729663888 82.95759830466548) rotate(0 2.5009765625 2.5009765625)"><path d="M5 2.5 C5 2.65, 4.99 2.79, 4.96 2.94 C4.94 3.08, 4.9 3.22, 4.85 3.36 C4.8 3.49, 4.74 3.63, 4.67 3.75 C4.59 3.88, 4.51 4, 4.42 4.11 C4.32 4.22, 4.22 4.32, 4.11 4.42 C4 4.51, 3.88 4.59, 3.75 4.67 C3.63 4.74, 3.49 4.8, 3.36 4.85 C3.22 4.9, 3.08 4.94, 2.94 4.96 C2.79 4.99, 2.65 5, 2.5 5 C2.36 5, 2.21 4.99, 2.07 4.96 C1.92 4.94, 1.78 4.9, 1.65 4.85 C1.51 4.8, 1.38 4.74, 1.25 4.67 C1.13 4.59, 1 4.51, 0.89 4.42 C0.78 4.32, 0.68 4.22, 0.59 4.11 C0.49 4, 0.41 3.88, 0.34 3.75 C0.26 3.63, 0.2 3.49, 0.15 3.36 C0.1 3.22, 0.06 3.08, 0.04 2.94 C0.01 2.79, 0 2.65, 0 2.5 C0 2.36, 0.01 2.21, 0.04 2.07 C0.06 1.92, 0.1 1.78, 0.15 1.65 C0.2 1.51, 0.26 1.38, 0.34 1.25 C0.41 1.13, 0.49 1, 0.59 0.89 C0.68 0.78, 0.78 0.68, 0.89 0.59 C1 0.49, 1.13 0.41, 1.25 0.34 C1.38 0.26, 1.51 0.2, 1.65 0.15 C1.78 0.1, 1.92 0.06, 2.07 0.04 C2.21 0.01, 2.36 0, 2.5 0 C2.65 0, 2.79 0.01, 2.94 0.04 C3.08 0.06, 3.22 0.1, 3.36 0.15 C3.49 0.2, 3.63 0.26, 3.75 0.34 C3.88 0.41, 4 0.49, 4.11 0.59 C4.22 0.68, 4.32 0.78, 4.42 0.89 C4.51 1, 4.59 1.13, 4.67 1.25 C4.74 1.38, 4.8 1.51, 4.85 1.65 C4.9 1.78, 4.94 1.92, 4.96 2.07 C4.99 2.21, 5 2.43, 5 2.5 C5.01 2.57, 5.01 2.43, 5 2.5" stroke="none" stroke-width="0" fill="#fab005"></path><path d="M5 2.5 C5 2.65, 4.99 2.79, 4.96 2.94 C4.94 3.08, 4.9 3.22, 4.85 3.36 C4.8 3.49, 4.74 3.63, 4.67 3.75 C4.59 3.88, 4.51 4, 4.42 4.11 C4.32 4.22, 4.22 4.32, 4.11 4.42 C4 4.51, 3.88 4.59, 3.75 4.67 C3.63 4.74, 3.49 4.8, 3.36 4.85 C3.22 4.9, 3.08 4.94, 2.94 4.96 C2.79 4.99, 2.65 5, 2.5 5 C2.36 5, 2.21 4.99, 2.07 4.96 C1.92 4.94, 1.78 4.9, 1.65 4.85 C1.51 4.8, 1.38 4.74, 1.25 4.67 C1.13 4.59, 1 4.51, 0.89 4.42 C0.78 4.32, 0.68 4.22, 0.59 4.11 C0.49 4, 0.41 3.88, 0.34 3.75 C0.26 3.63, 0.2 3.49, 0.15 3.36 C0.1 3.22, 0.06 3.08, 0.04 2.94 C0.01 2.79, 0 2.65, 0 2.5 C0 2.36, 0.01 2.21, 0.04 2.07 C0.06 1.92, 0.1 1.78, 0.15 1.65 C0.2 1.51, 0.26 1.38, 0.34 1.25 C0.41 1.13, 0.49 1, 0.59 0.89 C0.68 0.78, 0.78 0.68, 0.89 0.59 C1 0.49, 1.13 0.41, 1.25 0.34 C1.38 0.26, 1.51 0.2, 1.65 0.15 C1.78 0.1, 1.92 0.06, 2.07 0.04 C2.21 0.01, 2.36 0, 2.5 0 C2.65 0, 2.79 0.01, 2.94 0.04 C3.08 0.06, 3.22 0.1, 3.36 0.15 C3.49 0.2, 3.63 0.26, 3.75 0.34 C3.88 0.41, 4 0.49, 4.11 0.59 C4.22 0.68, 4.32 0.78, 4.42 0.89 C4.51 1, 4.59 1.13, 4.67 1.25 C4.74 1.38, 4.8 1.51, 4.85 1.65 C4.9 1.78, 4.94 1.92, 4.96 2.07 C4.99 2.21, 5 2.43, 5 2.5 C5.01 2.57, 5.01 2.43, 5 2.5" stroke="#000000" stroke-width="1" fill="none"></path></g><g stroke-linecap="round" transform="translate(91.70872376298507 83.40831945851167) rotate(0 2.5009765625 2.5009765625)"><path d="M5 2.5 C5 2.65, 4.99 2.79, 4.96 2.94 C4.94 3.08, 4.9 3.22, 4.85 3.36 C4.8 3.49, 4.74 3.63, 4.67 3.75 C4.59 3.88, 4.51 4, 4.42 4.11 C4.32 4.22, 4.22 4.32, 4.11 4.42 C4 4.51, 3.88 4.59, 3.75 4.67 C3.63 4.74, 3.49 4.8, 3.36 4.85 C3.22 4.9, 3.08 4.94, 2.94 4.96 C2.79 4.99, 2.65 5, 2.5 5 C2.36 5, 2.21 4.99, 2.07 4.96 C1.92 4.94, 1.78 4.9, 1.65 4.85 C1.51 4.8, 1.38 4.74, 1.25 4.67 C1.13 4.59, 1 4.51, 0.89 4.42 C0.78 4.32, 0.68 4.22, 0.59 4.11 C0.49 4, 0.41 3.88, 0.34 3.75 C0.26 3.63, 0.2 3.49, 0.15 3.36 C0.1 3.22, 0.06 3.08, 0.04 2.94 C0.01 2.79, 0 2.65, 0 2.5 C0 2.36, 0.01 2.21, 0.04 2.07 C0.06 1.92, 0.1 1.78, 0.15 1.65 C0.2 1.51, 0.26 1.38, 0.34 1.25 C0.41 1.13, 0.49 1, 0.59 0.89 C0.68 0.78, 0.78 0.68, 0.89 0.59 C1 0.49, 1.13 0.41, 1.25 0.34 C1.38 0.26, 1.51 0.2, 1.65 0.15 C1.78 0.1, 1.92 0.06, 2.07 0.04 C2.21 0.01, 2.36 0, 2.5 0 C2.65 0, 2.79 0.01, 2.94 0.04 C3.08 0.06, 3.22 0.1, 3.36 0.15 C3.49 0.2, 3.63 0.26, 3.75 0.34 C3.88 0.41, 4 0.49, 4.11 0.59 C4.22 0.68, 4.32 0.78, 4.42 0.89 C4.51 1, 4.59 1.13, 4.67 1.25 C4.74 1.38, 4.8 1.51, 4.85 1.65 C4.9 1.78, 4.94 1.92, 4.96 2.07 C4.99 2.21, 5 2.43, 5 2.5 C5.01 2.57, 5.01 2.43, 5 2.5" stroke="none" stroke-width="0" fill="#40c057"></path><path d="M5 2.5 C5 2.65, 4.99 2.79, 4.96 2.94 C4.94 3.08, 4.9 3.22, 4.85 3.36 C4.8 3.49, 4.74 3.63, 4.67 3.75 C4.59 3.88, 4.51 4, 4.42 4.11 C4.32 4.22, 4.22 4.32, 4.11 4.42 C4 4.51, 3.88 4.59, 3.75 4.67 C3.63 4.74, 3.49 4.8, 3.36 4.85 C3.22 4.9, 3.08 4.94, 2.94 4.96 C2.79 4.99, 2.65 5, 2.5 5 C2.36 5, 2.21 4.99, 2.07 4.96 C1.92 4.94, 1.78 4.9, 1.65 4.85 C1.51 4.8, 1.38 4.74, 1.25 4.67 C1.13 4.59, 1 4.51, 0.89 4.42 C0.78 4.32, 0.68 4.22, 0.59 4.11 C0.49 4, 0.41 3.88, 0.34 3.75 C0.26 3.63, 0.2 3.49, 0.15 3.36 C0.1 3.22, 0.06 3.08, 0.04 2.94 C0.01 2.79, 0 2.65, 0 2.5 C0 2.36, 0.01 2.21, 0.04 2.07 C0.06 1.92, 0.1 1.78, 0.15 1.65 C0.2 1.51, 0.26 1.38, 0.34 1.25 C0.41 1.13, 0.49 1, 0.59 0.89 C0.68 0.78, 0.78 0.68, 0.89 0.59 C1 0.49, 1.13 0.41, 1.25 0.34 C1.38 0.26, 1.51 0.2, 1.65 0.15 C1.78 0.1, 1.92 0.06, 2.07 0.04 C2.21 0.01, 2.36 0, 2.5 0 C2.65 0, 2.79 0.01, 2.94 0.04 C3.08 0.06, 3.22 0.1, 3.36 0.15 C3.49 0.2, 3.63 0.26, 3.75 0.34 C3.88 0.41, 4 0.49, 4.11 0.59 C4.22 0.68, 4.32 0.78, 4.42 0.89 C4.51 1, 4.59 1.13, 4.67 1.25 C4.74 1.38, 4.8 1.51, 4.85 1.65 C4.9 1.78, 4.94 1.92, 4.96 2.07 C4.99 2.21, 5 2.43, 5 2.5 C5.01 2.57, 5.01 2.43, 5 2.5" stroke="#000000" stroke-width="1" fill="none"></path></g><g stroke-opacity="0.9" fill-opacity="0.9" stroke-linecap="round" transform="translate(107.73578475261229 99.46068833652751) rotate(0 21.360101269687846 21.36010126968786)"><path d="M20.71 -0.31 C24.98 -0.77, 30.28 1.14, 33.85 3.99 C37.42 6.84, 40.99 12.27, 42.14 16.77 C43.3 21.27, 42.97 27.01, 40.81 30.98 C38.64 34.96, 33.48 38.86, 29.15 40.61 C24.83 42.36, 19.09 42.83, 14.84 41.49 C10.59 40.15, 6.13 36.37, 3.63 32.56 C1.14 28.75, -0.7 23.13, -0.13 18.63 C0.44 14.12, 3.44 8.7, 7.05 5.54 C10.66 2.37, 19.07 0.52, 21.56 -0.39 C24.05 -1.29, 22 -0.39, 21.99 0.11 M21.7 -0.26 C25.99 -0.48, 31.9 2.42, 35.44 5.56 C38.98 8.69, 42.22 14.08, 42.93 18.54 C43.63 23.01, 42.03 28.54, 39.68 32.37 C37.33 36.21, 33.25 40.11, 28.84 41.54 C24.43 42.96, 17.57 42.67, 13.2 40.93 C8.83 39.18, 4.74 34.98, 2.62 31.07 C0.5 27.16, -0.45 21.95, 0.5 17.48 C1.44 13.02, 4.67 7.29, 8.28 4.3 C11.89 1.31, 19.87 0.23, 22.14 -0.45 C24.42 -1.12, 21.99 -0.2, 21.95 0.26" stroke="none" stroke-width="0" fill="#04aaf7"></path><path d="M17.95 0.78 C22.17 -0.19, 28.24 0.56, 32.14 2.81 C36.05 5.07, 39.9 9.93, 41.39 14.29 C42.88 18.64, 42.72 24.67, 41.1 28.97 C39.48 33.26, 35.66 37.88, 31.67 40.04 C27.68 42.2, 21.54 42.79, 17.15 41.92 C12.75 41.05, 8.14 38.15, 5.3 34.8 C2.46 31.45, 0.14 26.35, 0.11 21.81 C0.08 17.27, 1.96 11.1, 5.13 7.55 C8.31 4, 16.7 1.66, 19.14 0.5 C21.58 -0.66, 19.75 0.23, 19.77 0.59 M19.08 0.55 C23.18 -0.3, 28.35 0.66, 32.25 3.16 C36.15 5.67, 41.07 11.08, 42.49 15.59 C43.91 20.1, 42.61 26.2, 40.74 30.22 C38.88 34.23, 35.29 37.63, 31.31 39.67 C27.33 41.72, 21.3 43.49, 16.86 42.48 C12.42 41.47, 7.39 37.21, 4.69 33.6 C1.99 29.99, 0.45 25.31, 0.67 20.82 C0.89 16.33, 2.88 10.16, 6.01 6.66 C9.14 3.17, 17.25 0.85, 19.47 -0.14 C21.69 -1.13, 19.39 0.35, 19.32 0.72" stroke="#000000" stroke-width="1" fill="none"></path></g><g stroke-linecap="round"><g transform="translate(134.8139488145879 115.68504040098512) rotate(0 -3.3114080732230207 5.9489359900645695)" fill-rule="evenodd"><path d="M0 0 C-0.31 -0.07, -0.57 0.63, -1.83 -0.41 C-3.09 -1.46, -5.98 -5.62, -7.57 -6.27 C-9.16 -6.93, -10.52 -5.79, -11.36 -4.35 C-12.2 -2.91, -12.63 0.53, -12.61 2.37 C-12.6 4.22, -10.47 5.65, -11.27 6.74 C-12.07 7.83, -16.44 7.74, -17.42 8.89 C-18.41 10.04, -18.04 12.9, -17.2 13.64 C-16.36 14.39, -13.8 14.04, -12.38 13.35 C-10.96 12.66, -10.16 8.72, -8.7 9.48 C-7.24 10.23, -5 16.42, -3.62 17.87 C-2.24 19.32, -0.39 20.35, -0.42 18.17 C-0.44 15.99, -4.08 7.1, -3.78 4.8 C-3.48 2.5, 0.23 4.17, 1.39 4.35 C2.54 4.53, 1.85 5.61, 3.16 5.87 C4.47 6.12, 7.96 6.74, 9.24 5.87 C10.51 5, 11.64 1.43, 10.8 0.63 C9.97 -0.16, 5.11 2.18, 4.22 1.11 C3.34 0.04, 5.78 -4.68, 5.49 -5.76 C5.19 -6.84, 3.43 -6.15, 2.47 -5.35 C1.52 -4.54, 0.17 -1.81, -0.24 -0.92 C-0.65 -0.03, -0.04 -0.15, 0 0" stroke="none" stroke-width="0" fill="#40c057" fill-rule="evenodd"></path><path d="M0 0 C-0.31 -0.07, -0.57 0.63, -1.83 -0.41 C-3.09 -1.46, -5.98 -5.62, -7.57 -6.27 C-9.16 -6.93, -10.52 -5.79, -11.36 -4.35 C-12.2 -2.91, -12.63 0.53, -12.61 2.37 C-12.6 4.22, -10.47 5.65, -11.27 6.74 C-12.07 7.83, -16.44 7.74, -17.42 8.89 C-18.41 10.04, -18.04 12.9, -17.2 13.64 C-16.36 14.39, -13.8 14.04, -12.38 13.35 C-10.96 12.66, -10.16 8.72, -8.7 9.48 C-7.24 10.23, -5 16.42, -3.62 17.87 C-2.24 19.32, -0.39 20.35, -0.42 18.17 C-0.44 15.99, -4.08 7.1, -3.78 4.8 C-3.48 2.5, 0.23 4.17, 1.39 4.35 C2.54 4.53, 1.85 5.61, 3.16 5.87 C4.47 6.12, 7.96 6.74, 9.24 5.87 C10.51 5, 11.64 1.43, 10.8 0.63 C9.97 -0.16, 5.11 2.18, 4.22 1.11 C3.34 0.04, 5.78 -4.68, 5.49 -5.76 C5.19 -6.84, 3.43 -6.15, 2.47 -5.35 C1.52 -4.54, 0.17 -1.81, -0.24 -0.92 C-0.65 -0.03, -0.04 -0.15, 0 0 M0 0 C-0.31 -0.07, -0.57 0.63, -1.83 -0.41 C-3.09 -1.46, -5.98 -5.62, -7.57 -6.27 C-9.16 -6.93, -10.52 -5.79, -11.36 -4.35 C-12.2 -2.91, -12.63 0.53, -12.61 2.37 C-12.6 4.22, -10.47 5.65, -11.27 6.74 C-12.07 7.83, -16.44 7.74, -17.42 8.89 C-18.41 10.04, -18.04 12.9, -17.2 13.64 C-16.36 14.39, -13.8 14.04, -12.38 13.35 C-10.96 12.66, -10.16 8.72, -8.7 9.48 C-7.24 10.23, -5 16.42, -3.62 17.87 C-2.24 19.32, -0.39 20.35, -0.42 18.17 C-0.44 15.99, -4.08 7.1, -3.78 4.8 C-3.48 2.5, 0.23 4.17, 1.39 4.35 C2.54 4.53, 1.85 5.61, 3.16 5.87 C4.47 6.12, 7.96 6.74, 9.24 5.87 C10.51 5, 11.64 1.43, 10.8 0.63 C9.97 -0.16, 5.11 2.18, 4.22 1.11 C3.34 0.04, 5.78 -4.68, 5.49 -5.76 C5.19 -6.84, 3.43 -6.15, 2.47 -5.35 C1.52 -4.54, 0.17 -1.81, -0.24 -0.92 C-0.65 -0.03, -0.04 -0.15, 0 0" stroke="#087f5b" stroke-width="1" fill="none"></path></g></g><mask></mask><g stroke-linecap="round"><g stroke-opacity="0.9" fill-opacity="0.9" transform="translate(108.79484722663983 120.42356189970852) rotate(0 21.047557886136133 0)"><path d="M-0.41 0.33 C6.75 0.3, 35.52 0.17, 42.59 0.11 M0.38 0.02 C7.54 -0.2, 35.54 -0.89, 42.42 -0.8" stroke="#000000" stroke-width="1" fill="none"></path></g></g><mask></mask><g stroke-linecap="round"><g stroke-opacity="0.9" fill-opacity="0.9" transform="translate(113.89017625641418 104.98903297274236) rotate(0 14.659303301924297 2.593116626464493)"><path d="M0 0 C0.13 0.38, 0.09 1.58, 0.77 2.28 C1.46 2.97, 2.81 3.68, 4.1 4.19 C5.4 4.7, 6.64 5.13, 8.54 5.34 C10.43 5.55, 12.97 5.55, 15.48 5.45 C17.99 5.34, 21.44 5.28, 23.58 4.71 C25.72 4.14, 27.36 2.86, 28.32 2.03 C29.27 1.2, 29.15 0.12, 29.32 -0.26 M0 0 C0.13 0.38, 0.09 1.58, 0.77 2.28 C1.46 2.97, 2.81 3.68, 4.1 4.19 C5.4 4.7, 6.64 5.13, 8.54 5.34 C10.43 5.55, 12.97 5.55, 15.48 5.45 C17.99 5.34, 21.44 5.28, 23.58 4.71 C25.72 4.14, 27.36 2.86, 28.32 2.03 C29.27 1.2, 29.15 0.12, 29.32 -0.26" stroke="#000000" stroke-width="1" fill="none"></path></g></g><mask></mask><g stroke-opacity="0.9" fill-opacity="0.9" stroke-linecap="round" transform="translate(121.96409218033364 98.07815870693483) rotate(0 7.7642171765580485 22.411151940654705)"><path d="M8.27 0.32 C9.83 0.42, 11.64 3.1, 12.9 6.5 C14.15 9.9, 15.62 15.79, 15.82 20.74 C16.03 25.69, 15.14 32.29, 14.12 36.18 C13.1 40.08, 11.28 43.02, 9.72 44.12 C8.15 45.23, 6.24 44.93, 4.72 42.82 C3.2 40.71, 1.28 35.86, 0.59 31.47 C-0.1 27.07, 0.17 21.03, 0.61 16.45 C1.05 11.86, 1.84 6.63, 3.23 3.97 C4.62 1.31, 7.9 1.08, 8.93 0.48 C9.96 -0.13, 9.47 -0.07, 9.42 0.34 M9.28 -0.4 C10.95 0.03, 12.85 4.5, 13.95 8.16 C15.06 11.83, 15.83 16.75, 15.9 21.59 C15.98 26.43, 15.47 33.44, 14.4 37.22 C13.32 41.01, 11.09 43.57, 9.47 44.3 C7.85 45.03, 6.08 43.93, 4.67 41.61 C3.27 39.29, 1.72 34.87, 1.03 30.39 C0.33 25.9, 0.14 19.16, 0.49 14.72 C0.85 10.27, 1.76 6.15, 3.17 3.71 C4.57 1.27, 8.04 0.5, 8.91 0.09 C9.78 -0.33, 8.46 0.94, 8.38 1.22" stroke="#000000" stroke-width="1" fill="none"></path></g><g stroke-linecap="round"><g stroke-opacity="0.9" fill-opacity="0.9" transform="translate(115.40612776604007 136.72612503118327) rotate(0 14.659303301924297 -2.6770512214207827)"><path d="M0 0 C0.68 -0.72, 2.68 -3.4, 4.1 -4.32 C5.53 -5.24, 6.64 -5.3, 8.54 -5.52 C10.43 -5.73, 12.97 -5.73, 15.48 -5.63 C17.99 -5.52, 21.44 -5.45, 23.58 -4.86 C25.72 -4.28, 27.36 -2.95, 28.32 -2.1 C29.27 -1.24, 29.15 -0.12, 29.32 0.27 M0 0 C0.68 -0.72, 2.68 -3.4, 4.1 -4.32 C5.53 -5.24, 6.64 -5.3, 8.54 -5.52 C10.43 -5.73, 12.97 -5.73, 15.48 -5.63 C17.99 -5.52, 21.44 -5.45, 23.58 -4.86 C25.72 -4.28, 27.36 -2.95, 28.32 -2.1 C29.27 -1.24, 29.15 -0.12, 29.32 0.27" stroke="#000000" stroke-width="1" fill="none"></path></g></g><mask></mask><g transform="translate(76.63636363636363 160.8181818181818) rotate(0 46.28009796142578 10)"><text x="0" y="0" font-family="Virgil, Segoe UI Emoji" font-size="16px" fill="#1e1e1e" text-anchor="start" style="white-space: pre;" direction="ltr" dominant-baseline="text-before-edge">web browser</text></g><g stroke-linecap="round"><g transform="translate(204.81818181818187 120.13636363636363) rotate(0 85.90909090909088 5.4545454545454675)"><path d="M0.08 1.18 C15.81 -0.09, 65.5 -10.71, 94.27 -8.05 C123.04 -5.39, 159.73 12.84, 172.7 17.14 M-1.34 0.76 C14.22 -0.35, 64.22 -9.78, 93.17 -6.92 C122.13 -4.06, 159.18 13.65, 172.4 17.91" stroke="#1e1e1e" stroke-width="2" fill="none"></path></g><g transform="translate(204.81818181818187 120.13636363636363) rotate(0 85.90909090909088 5.4545454545454675)"><path d="M142.41 17.39 C153.08 17.06, 158.51 19.15, 172.4 17.91 M142.41 17.39 C149.02 17.17, 154.89 17.73, 172.4 17.91" stroke="#1e1e1e" stroke-width="2" fill="none"></path></g><g transform="translate(204.81818181818187 120.13636363636363) rotate(0 85.90909090909088 5.4545454545454675)"><path d="M149.76 -1.77 C158.24 3.46, 161.54 11.11, 172.4 17.91 M149.76 -1.77 C154.85 2.08, 159.14 6.72, 172.4 17.91" stroke="#1e1e1e" stroke-width="2" fill="none"></path></g></g><mask></mask><g stroke-linecap="round"><g transform="translate(515.7272727272727 123.77272727272728) rotate(0 53.18181818181813 87.7272727272727)"><path d="M0.39 -0.87 C12.59 7.23, 54.32 25.81, 72.36 48.39 C90.41 70.97, 109.67 113.49, 108.66 134.61 C107.65 155.73, 71.91 183.06, 66.32 175.1 C60.73 167.14, 82.04 110.19, 75.13 86.86 C68.21 63.53, 37.76 46.52, 24.84 35.13 C11.92 23.73, 2.04 21.19, -2.4 18.51 M-0.87 1.28 C11.22 9.55, 53.05 27.19, 71.22 49.56 C89.39 71.92, 108.84 114.41, 108.14 135.48 C107.45 156.56, 72.72 184.01, 67.03 176.02 C61.33 168.02, 81.34 111.12, 73.96 87.52 C66.58 63.91, 35.41 45.56, 22.74 34.39 C10.07 23.23, 2.2 23.14, -2.06 20.52" stroke="#2f9e44" stroke-width="2" fill="none"></path></g><g transform="translate(515.7272727272727 123.77272727272728) rotate(0 53.18181818181813 87.7272727272727)"><path d="M13.2 21.28 C8.58 20.69, 5.29 21.59, -2.06 20.52 M13.2 21.28 C10.06 21.38, 6.37 21.26, -2.06 20.52" stroke="#2f9e44" stroke-width="2" fill="none"></path></g><g transform="translate(515.7272727272727 123.77272727272728) rotate(0 53.18181818181813 87.7272727272727)"><path d="M9.13 30.91 C5.47 28.09, 3.11 26.78, -2.06 20.52 M9.13 30.91 C6.86 28.81, 4.1 26.48, -2.06 20.52" stroke="#2f9e44" stroke-width="2" fill="none"></path></g></g><mask></mask></svg>